<svg xmlns="http://www.w3.org/2000/svg" xmlns:xlink="http://www.w3.org/1999/xlink" width="22" height="22" viewBox="0 0 22 22">
  <defs>
    <polygon id="a" points="0 3 20 3 20 4 0 4"/>
  </defs>
  <g fill="none" fill-rule="evenodd">
    <rect width="22" height="22"/>
    <g transform="translate(1 1)">
      <use fill="#D8D8D8" xlink:href="#a"/>
      <path stroke="#979797" d="M0,3.5 L20,3.5 L19.5,3 L19.5,4 L20,3.5 L0,3.5 L0.5,4 L0.5,3 L0,3.5 Z"/>
      <path stroke="#979797" d="M13.5 3.5L6.5 3.5 6.5 2C6.5 1.16843281 7.16598045.5 7.99810135.5L12.0018986.5C12.832133.5 13.5 1.16672364 13.5 2L13.5 3.5zM2.52408274 3.5L17.4759173 3.5 16.7476097 18.9765364C16.7341433 19.2626976 16.4856337 19.5 16.1988527 19.5L3.80114726 19.5C3.5181463 19.5 3.26563554 19.2579971 3.25239033 18.9765364L2.52408274 3.5z"/>
      <polygon fill="#979797" points="7 7 8 7 8 16 7 16"/>
      <polygon fill="#979797" points="12 7 13 7 13 16 12 16"/>
    </g>
  </g>
</svg>
