<svg width="357" height="122" viewBox="0 0 357 122" version="1.1" xmlns="http://www.w3.org/2000/svg" xmlns:xlink="http://www.w3.org/1999/xlink">
<title>Group</title>
<desc>Created using Figma</desc>
<g id="Canvas" transform="translate(-21285 3441)">
<g id="Group">
<g id="Group">
<g id="Vector">
<use xlink:href="#path0_stroke" transform="translate(21286 -3360.29)" fill="#D8D8D8"/>
</g>
<g id="Vector">
<use xlink:href="#path1_stroke" transform="translate(21296 -3348.33)" fill="#D8D8D8"/>
</g>
<g id="Vector">
<use xlink:href="#path2_stroke" transform="translate(21355.9 -3330.4)" fill="#D8D8D8"/>
</g>
<g id="Vector">
<use xlink:href="#path2_stroke" transform="translate(21325.9 -3330.4)" fill="#D8D8D8"/>
</g>
<g id="Vector">
<use xlink:href="#path3_stroke" transform="translate(21385.5 -3330.4)" fill="#D8D8D8"/>
</g>
<g id="Vector">
<use xlink:href="#path2_stroke" transform="translate(21592.1 -3330.4)" fill="#D8D8D8"/>
</g>
<g id="Vector">
<use xlink:href="#path2_stroke" transform="translate(21622.1 -3330.4)" fill="#D8D8D8"/>
</g>
<g id="Vector">
<use xlink:href="#path4_stroke" transform="translate(21474 -3330.4)" fill="#D8D8D8"/>
</g>
<g id="Vector">
<use xlink:href="#path5_stroke" transform="translate(21503.5 -3330.4)" fill="#D8D8D8"/>
</g>
<g id="Vector">
<use xlink:href="#path6_stroke" transform="translate(21414.9 -3330.4)" fill="#D8D8D8"/>
</g>
<g id="Vector">
<use xlink:href="#path4_stroke" transform="translate(21444.5 -3330.4)" fill="#D8D8D8"/>
</g>
<g id="Vector">
<use xlink:href="#path7_stroke" transform="translate(21533.1 -3330.4)" fill="#D8D8D8"/>
</g>
<g id="Vector">
<use xlink:href="#path7_stroke" transform="translate(21562.5 -3330.4)" fill="#D8D8D8"/>
</g>
</g>
<g id="Group">
<g id="Vector">
<use xlink:href="#path8_stroke" transform="translate(21381.9 -3397.95)" fill="#D8D8D8"/>
</g>
<g id="Vector">
<use xlink:href="#path9_stroke" transform="translate(21384.1 -3435.02)" fill="#D8D8D8"/>
</g>
<g id="Vector">
<use xlink:href="#path10_stroke" transform="translate(21387.5 -3375.24)" fill="#D8D8D8"/>
</g>
</g>
<g id="Group">
<g id="Vector">
<use xlink:href="#path11_stroke" transform="translate(21440.9 -3394.76)" fill="#D8D8D8"/>
</g>
<g id="Vector">
<use xlink:href="#path12_stroke" transform="translate(21443.1 -3435.02)" fill="#D8D8D8"/>
</g>
<g id="Vector">
<use xlink:href="#path13_stroke" transform="translate(21446.5 -3377.63)" fill="#D8D8D8"/>
</g>
</g>
<g id="Group">
<g id="Vector">
<use xlink:href="#path14_stroke" transform="translate(21470.4 -3394.76)" fill="#D8D8D8"/>
</g>
<g id="Vector">
<use xlink:href="#path15_stroke" transform="translate(21471.8 -3439.9)" fill="#D8D8D8"/>
</g>
<g id="Vector">
<use xlink:href="#path16_stroke" transform="translate(21476 -3378.22)" fill="#D8D8D8"/>
</g>
</g>
<g id="Group">
<g id="Vector">
<use xlink:href="#path17_stroke" transform="translate(21352.3 -3394.76)" fill="#D8D8D8"/>
</g>
<g id="Vector">
<use xlink:href="#path17_stroke" transform="translate(21352.3 -3394.76)" fill="#D8D8D8"/>
</g>
<g id="Vector">
<use xlink:href="#path18_stroke" transform="translate(21357.9 -3378.22)" fill="#D8D8D8"/>
</g>
<g id="Vector">
<use xlink:href="#path19_stroke" transform="translate(21353.9 -3435.02)" fill="#D8D8D8"/>
</g>
</g>
<g id="Group">
<g id="Vector">
<use xlink:href="#path20_stroke" transform="translate(21505.5 -3379.22)" fill="#D8D8D8"/>
</g>
<g id="Vector">
<use xlink:href="#path21_stroke" transform="translate(21500.7 -3440)" fill="#D8D8D8"/>
</g>
<g id="Vector">
<use xlink:href="#path22_stroke" transform="translate(21503.5 -3421.37)" fill="#D8D8D8"/>
</g>
<g id="Vector">
<use xlink:href="#path23_stroke" transform="translate(21508.5 -3424.56)" fill="#D8D8D8"/>
</g>
</g>
<g id="Group">
<g id="Vector">
<use xlink:href="#path24_stroke" transform="translate(21533.1 -3402.93)" fill="#D8D8D8"/>
</g>
<g id="Vector">
<use xlink:href="#path25_stroke" transform="translate(21535.1 -3379.22)" fill="#D8D8D8"/>
</g>
<g id="Vector">
<use xlink:href="#path26_stroke" transform="translate(21530.5 -3439.8)" fill="#D8D8D8"/>
</g>
<g id="Vector">
<use xlink:href="#path27_stroke" transform="translate(21528.2 -3426.45)" fill="#D8D8D8"/>
</g>
<g id="Group">
<g id="Vector">
<use xlink:href="#path28_stroke" transform="translate(21534.2 -3406.82)" fill="#D8D8D8"/>
</g>
<g id="Vector">
<use xlink:href="#path29_stroke" transform="translate(21534.2 -3394.86)" fill="#D8D8D8"/>
</g>
</g>
<g id="Vector">
<use xlink:href="#path30_stroke" transform="translate(21534.2 -3431.73)" fill="#D8D8D8"/>
</g>
</g>
<g id="Group">
<g id="Vector">
<use xlink:href="#path31_stroke" transform="translate(21558.9 -3391.97)" fill="#D8D8D8"/>
</g>
<g id="Vector">
<use xlink:href="#path32_stroke" transform="translate(21564.6 -3414.89)" fill="#D8D8D8"/>
</g>
<g id="Vector">
<use xlink:href="#path33_stroke" transform="translate(21562.6 -3429.04)" fill="#D8D8D8"/>
</g>
<g id="Vector">
<use xlink:href="#path34_stroke" transform="translate(21564.5 -3378.92)" fill="#D8D8D8"/>
</g>
<g id="Vector">
<use xlink:href="#path35_stroke" transform="translate(21557.5 -3438.01)" fill="#D8D8D8"/>
</g>
</g>
<g id="Group">
<g id="Vector">
<use xlink:href="#path36_stroke" transform="matrix(0.708382 -0.705815 0.708382 0.705815 21588.2 -3385.2)" fill="#D8D8D8"/>
</g>
<g id="Vector">
<use xlink:href="#path37_stroke" transform="translate(21594.1 -3379.32)" fill="#D8D8D8"/>
</g>
<g id="Vector">
<use xlink:href="#path38_stroke" transform="translate(21590.1 -3435.02)" fill="#D8D8D8"/>
</g>
</g>
<g id="Group">
<g id="Vector">
<use xlink:href="#path39_stroke" transform="translate(21411.3 -3426.45)" fill="#D8D8D8"/>
</g>
<g id="Vector">
<use xlink:href="#path40_stroke" transform="translate(21416.9 -3377.63)" fill="#D8D8D8"/>
</g>
<g id="Group">
<g id="Vector">
<use xlink:href="#path41_stroke" transform="translate(21414.9 -3440)" fill="#D8D8D8"/>
</g>
<g id="Vector">
<use xlink:href="#path42_stroke" transform="translate(21414.9 -3411.01)" fill="#D8D8D8"/>
</g>
</g>
</g>
<g id="Vector">
<use xlink:href="#path43_stroke" transform="translate(21335.8 -3388.49)" fill="#D8D8D8"/>
</g>
<g id="Vector">
<use xlink:href="#path44_stroke" transform="translate(21368.5 -3388.49)" fill="#D8D8D8"/>
</g>
<g id="Vector">
<use xlink:href="#path45_stroke" transform="translate(21398.6 -3388.49)" fill="#D8D8D8"/>
</g>
<g id="Vector">
<use xlink:href="#path46_stroke" transform="translate(21424.9 -3388.49)" fill="#D8D8D8"/>
</g>
<g id="Vector">
<use xlink:href="#path47_stroke" transform="translate(21458 -3388.49)" fill="#D8D8D8"/>
</g>
<g id="Vector">
<use xlink:href="#path48_stroke" transform="translate(21486.6 -3388.49)" fill="#D8D8D8"/>
</g>
<g id="Vector">
<use xlink:href="#path49_stroke" transform="translate(21513.5 -3388.49)" fill="#D8D8D8"/>
</g>
<g id="Vector">
<use xlink:href="#path50_stroke" transform="translate(21542 -3388.49)" fill="#D8D8D8"/>
</g>
<g id="Vector">
<use xlink:href="#path51_stroke" transform="translate(21575.1 -3388.49)" fill="#D8D8D8"/>
</g>
<g id="Vector">
<use xlink:href="#path52_stroke" transform="translate(21602.7 -3388.49)" fill="#D8D8D8"/>
</g>
<g id="Vector">
<use xlink:href="#path53_stroke" transform="translate(21303.5 -3391.48)" fill="#D8D8D8"/>
</g>
<g id="Vector">
<use xlink:href="#path54_stroke" transform="translate(21305.9 -3366.27)" fill="#D8D8D8"/>
</g>
</g>
</g>
<defs>
<path id="path0_stroke" d="M 0 0L 0 -1C -0.552285 -1 -1 -0.552285 -1 2.22045e-16L 0 0ZM 386 0L 387 0C 387 -0.552285 386.552 -1 386 -1L 386 0ZM 386 11.9565L 386 12.9565C 386.552 12.9565 387 12.5088 387 11.9565L 386 11.9565ZM 0 11.9565L -1 11.9565C -1 12.5088 -0.552285 12.9565 2.22045e-16 12.9565L 0 11.9565ZM 0 1L 386 1L 386 -1L 0 -1L 0 1ZM 385 0L 385 11.9565L 387 11.9565L 387 0L 385 0ZM 386 10.9565L 0 10.9565L 0 12.9565L 386 12.9565L 386 10.9565ZM 1 11.9565L 1 0L -1 0L -1 11.9565L 1 11.9565Z"/>
<path id="path1_stroke" d="M -1 73.3333C -1 73.8856 -0.552285 74.3333 0 74.3333C 0.552285 74.3333 1 73.8856 1 73.3333L -1 73.3333ZM 0 0L 0 -1C -0.552285 -1 -1 -0.552285 -1 2.22045e-16L 0 0ZM 366.026 0L 367.026 0C 367.026 -0.552285 366.578 -1 366.026 -1L 366.026 0ZM 365.026 73.3333C 365.026 73.8856 365.474 74.3333 366.026 74.3333C 366.578 74.3333 367.026 73.8856 367.026 73.3333L 365.026 73.3333ZM 1 73.3333L 1 0L -1 0L -1 73.3333L 1 73.3333ZM 0 1L 366.026 1L 366.026 -1L 0 -1L 0 1ZM 365.026 0L 365.026 73.3333L 367.026 73.3333L 367.026 0L 365.026 0Z"/>
<path id="path2_stroke" d="M -1 55.3986C -1 55.9508 -0.552285 56.3986 0 56.3986C 0.552285 56.3986 1 55.9508 1 55.3986L -1 55.3986ZM 8.98706 55.3986C 8.98706 55.9508 9.43478 56.3986 9.98706 56.3986C 10.5393 56.3986 10.9871 55.9508 10.9871 55.3986L 8.98706 55.3986ZM 1 55.3986L 1 4.98188L -1 4.98188L -1 55.3986L 1 55.3986ZM 1 4.98188C 1 2.74651 2.74724 1 4.99353 1L 4.99353 -1C 1.64707 -1 -1 1.63754 -1 4.98188L 1 4.98188ZM 4.99353 1C 7.23983 1 8.98706 2.74651 8.98706 4.98188L 10.9871 4.98188C 10.9871 1.63754 8.33999 -1 4.99353 -1L 4.99353 1ZM 8.98706 4.98188L 8.98706 55.3986L 10.9871 55.3986L 10.9871 4.98188L 8.98706 4.98188Z"/>
<path id="path3_stroke" d="M -1 55.3986C -1 55.9508 -0.552286 56.3986 -1.5239e-06 56.3986C 0.552283 56.3986 0.999998 55.9508 0.999998 55.3986L -1 55.3986ZM 8.98706 55.3986C 8.98706 55.9508 9.43478 56.3986 9.98706 56.3986C 10.5393 56.3986 10.9871 55.9508 10.9871 55.3986L 8.98706 55.3986ZM 0.999998 55.3986L 0.999998 4.98188L -1 4.98188L -1 55.3986L 0.999998 55.3986ZM 0.999998 4.98188C 0.999998 2.74651 2.74723 1 4.99353 1L 4.99353 -1C 1.64707 -1 -1 1.63754 -1 4.98188L 0.999998 4.98188ZM 4.99353 1C 7.23983 1 8.98706 2.74651 8.98706 4.98188L 10.9871 4.98188C 10.9871 1.63754 8.33999 -1 4.99353 -1L 4.99353 1ZM 8.98706 4.98188L 8.98706 55.3986L 10.9871 55.3986L 10.9871 4.98188L 8.98706 4.98188Z"/>
<path id="path4_stroke" d="M -1 55.3986C -1 55.9508 -0.552288 56.3986 -3.04781e-06 56.3986C 0.552282 56.3986 0.999997 55.9508 0.999997 55.3986L -1 55.3986ZM 8.98706 55.3986C 8.98706 55.9508 9.43478 56.3986 9.98706 56.3986C 10.5393 56.3986 10.9871 55.9508 10.9871 55.3986L 8.98706 55.3986ZM 0.999997 55.3986L 0.999997 4.98188L -1 4.98188L -1 55.3986L 0.999997 55.3986ZM 0.999997 4.98188C 0.999997 2.74651 2.74723 1 4.99353 1L 4.99353 -1C 1.64707 -1 -1 1.63754 -1 4.98188L 0.999997 4.98188ZM 4.99353 1C 7.23982 1 8.98706 2.74651 8.98706 4.98188L 10.9871 4.98188C 10.9871 1.63754 8.33999 -1 4.99353 -1L 4.99353 1ZM 8.98706 4.98188L 8.98706 55.3986L 10.9871 55.3986L 10.9871 4.98188L 8.98706 4.98188Z"/>
<path id="path5_stroke" d="M -0.999997 55.3986C -0.999997 55.9508 -0.552282 56.3986 3.04781e-06 56.3986C 0.552288 56.3986 1 55.9508 1 55.3986L -0.999997 55.3986ZM 8.98707 55.3986C 8.98707 55.9508 9.43478 56.3986 9.98707 56.3986C 10.5394 56.3986 10.9871 55.9508 10.9871 55.3986L 8.98707 55.3986ZM 1 55.3986L 1 4.98188L -0.999997 4.98188L -0.999997 55.3986L 1 55.3986ZM 1 4.98188C 1 2.74651 2.74724 1 4.99353 1L 4.99353 -1C 1.64708 -1 -0.999997 1.63754 -0.999997 4.98188L 1 4.98188ZM 4.99353 1C 7.23983 1 8.98707 2.74651 8.98707 4.98188L 10.9871 4.98188C 10.9871 1.63754 8.33999 -1 4.99353 -1L 4.99353 1ZM 8.98707 4.98188L 8.98707 55.3986L 10.9871 55.3986L 10.9871 4.98188L 8.98707 4.98188Z"/>
<path id="path6_stroke" d="M -0.999994 55.3986C -0.999994 55.9508 -0.552279 56.3986 6.09562e-06 56.3986C 0.552291 56.3986 1.00001 55.9508 1.00001 55.3986L -0.999994 55.3986ZM 8.98707 55.3986C 8.98707 55.9508 9.43478 56.3986 9.98707 56.3986C 10.5394 56.3986 10.9871 55.9508 10.9871 55.3986L 8.98707 55.3986ZM 1.00001 55.3986L 1.00001 4.98188L -0.999994 4.98188L -0.999994 55.3986L 1.00001 55.3986ZM 1.00001 4.98188C 1.00001 2.74651 2.74724 1 4.99354 1L 4.99354 -1C 1.64708 -1 -0.999994 1.63754 -0.999994 4.98188L 1.00001 4.98188ZM 4.99354 1C 7.23983 1 8.98707 2.74651 8.98707 4.98188L 10.9871 4.98188C 10.9871 1.63754 8.34 -1 4.99354 -1L 4.99354 1ZM 8.98707 4.98188L 8.98707 55.3986L 10.9871 55.3986L 10.9871 4.98188L 8.98707 4.98188Z"/>
<path id="path7_stroke" d="M -1.00001 55.3986C -1.00001 55.9508 -0.552291 56.3986 -6.09562e-06 56.3986C 0.552279 56.3986 0.999994 55.9508 0.999994 55.3986L -1.00001 55.3986ZM 8.98706 55.3986C 8.98706 55.9508 9.43477 56.3986 9.98706 56.3986C 10.5393 56.3986 10.9871 55.9508 10.9871 55.3986L 8.98706 55.3986ZM 0.999994 55.3986L 0.999994 4.98188L -1.00001 4.98188L -1.00001 55.3986L 0.999994 55.3986ZM 0.999994 4.98188C 0.999994 2.74651 2.74723 1 4.99353 1L 4.99353 -1C 1.64707 -1 -1.00001 1.63754 -1.00001 4.98188L 0.999994 4.98188ZM 4.99353 1C 7.23982 1 8.98706 2.74651 8.98706 4.98188L 10.9871 4.98188C 10.9871 1.63754 8.33998 -1 4.99353 -1L 4.99353 1ZM 8.98706 4.98188L 8.98706 55.3986L 10.9871 55.3986L 10.9871 4.98188L 8.98706 4.98188Z"/>
<path id="path8_stroke" d="M 16.1777 11.7572C 16.1777 14.8145 15.2711 17.542 13.8546 19.481C 12.4376 21.4207 10.5638 22.5145 8.58887 22.5145L 8.58887 24.5145C 11.3574 24.5145 13.7781 22.9763 15.4696 20.6608C 17.1617 18.3444 18.1777 15.1933 18.1777 11.7572L 16.1777 11.7572ZM 8.58887 22.5145C 6.61392 22.5145 4.74012 21.4207 3.32311 19.481C 1.90666 17.542 1 14.8145 1 11.7572L -1 11.7572C -1 15.1933 0.01602 18.3444 1.70813 20.6608C 3.39969 22.9763 5.82032 24.5145 8.58887 24.5145L 8.58887 22.5145ZM 1 11.7572C 1 8.69997 1.90666 5.97246 3.32311 4.0335C 4.74012 2.09377 6.61392 1 8.58887 1L 8.58887 -0.999999C 5.82032 -0.999999 3.39969 0.538178 1.70813 2.85373C 0.01602 5.17006 -1 8.32117 -1 11.7572L 1 11.7572ZM 8.58887 1C 10.5638 1 12.4376 2.09377 13.8546 4.0335C 15.2711 5.97246 16.1777 8.69997 16.1777 11.7572L 18.1777 11.7572C 18.1777 8.32117 17.1617 5.17006 15.4696 2.85373C 13.7781 0.538178 11.3574 -0.999999 8.58887 -0.999999L 8.58887 1Z"/>
<path id="path9_stroke" d="M 2.71782 38.2609L 1.72151 38.3467C 1.75152 38.6949 1.96107 39.0021 2.27425 39.1571C 2.58743 39.3121 2.9588 39.2924 3.2538 39.1051L 2.71782 38.2609ZM 10.1082 38.2609L 9.57226 39.1051C 9.86727 39.2924 10.2386 39.3121 10.5518 39.1571C 10.865 39.0021 11.0745 38.6949 11.1046 38.3467L 10.1082 38.2609ZM 12.8048 6.97464L 13.8011 7.06051L 13.8015 7.05564L 12.8048 6.97464ZM 0.0213062 6.97464L -0.975602 7.05352L -0.975 7.06051L 0.0213062 6.97464ZM 3.2538 39.1051C 4.20841 38.499 5.22307 38.1649 6.41303 38.1649L 6.41303 36.1649C 4.8066 36.1649 3.42438 36.6278 2.18183 37.4166L 3.2538 39.1051ZM 6.41303 38.1649C 7.60298 38.1649 8.61766 38.499 9.57226 39.1051L 10.6442 37.4166C 9.40168 36.6278 8.01945 36.1649 6.41303 36.1649L 6.41303 38.1649ZM 11.1046 38.3467L 13.8011 7.06051L 11.8084 6.88877L 9.11194 38.175L 11.1046 38.3467ZM 13.8015 7.05564C 14.1469 2.80499 10.8105 -1 6.41303 -1L 6.41303 1C 9.60573 1 12.0618 3.7711 11.808 6.89363L 13.8015 7.05564ZM 6.41303 -1C 2.02383 -1 -1.32036 2.69648 -0.975578 7.05352L 1.01819 6.89575C 0.763748 3.68033 3.21205 1 6.41303 1L 6.41303 -1ZM -0.975 7.06051L 1.72151 38.3467L 3.71412 38.175L 1.01761 6.88877L -0.975 7.06051Z"/>
<path id="path10_stroke" d="M -1.5239e-06 0L 0.484775 -0.874638C 0.175028 -1.04632 -0.20242 -1.04137 -0.507556 -0.86162C -0.812693 -0.681873 -1 -0.354143 -1 -1.94209e-16L -1.5239e-06 0ZM -1.5239e-06 6.97464L -1 6.97464C -1 7.52692 -0.552286 7.97464 -1.5239e-06 7.97464L -1.5239e-06 6.97464ZM 5.99224 6.97464L 5.99224 7.97464C 6.54452 7.97464 6.99224 7.52692 6.99224 6.97464L 5.99224 6.97464ZM 5.99224 0L 6.99224 0C 6.99224 -0.346412 6.81295 -0.668149 6.51836 -0.850405C 6.22377 -1.03266 5.85584 -1.04947 5.54586 -0.894844L 5.99224 0ZM 2.99612 -0.202896C 2.08684 -0.202896 1.2535 -0.448567 0.484775 -0.874638L -0.484778 0.874638C 0.544172 1.44494 1.70824 1.7971 2.99612 1.7971L 2.99612 -0.202896ZM -1 0L -1 6.97464L 0.999998 6.97464L 0.999998 0L -1 0ZM -1.5239e-06 7.97464L 5.99224 7.97464L 5.99224 5.97464L -1.5239e-06 5.97464L -1.5239e-06 7.97464ZM 6.99224 6.97464L 6.99224 0L 4.99224 0L 4.99224 6.97464L 6.99224 6.97464ZM 5.54586 -0.894844C 4.63771 -0.441832 3.79388 -0.202896 2.99612 -0.202896L 2.99612 1.7971C 4.19577 1.7971 5.34935 1.43821 6.43862 0.894844L 5.54586 -0.894844Z"/>
<path id="path11_stroke" d="M 6.09562e-06 1.52035e-06L 6.09562e-06 -0.999998C -0.552279 -0.999998 -0.999994 -0.552283 -0.999994 1.52035e-06L 6.09562e-06 1.52035e-06ZM 17.0779 1.52035e-06L 18.0779 1.52035e-06C 18.0779 -0.552283 17.6302 -0.999998 17.0779 -0.999998L 17.0779 1.52035e-06ZM 17.0779 17.038L 17.0779 18.038C 17.6302 18.038 18.0779 17.5903 18.0779 17.038L 17.0779 17.038ZM 6.09562e-06 17.038L -0.999994 17.038C -0.999994 17.5903 -0.552279 18.038 6.09562e-06 18.038L 6.09562e-06 17.038ZM 6.09562e-06 1L 17.0779 1L 17.0779 -0.999998L 6.09562e-06 -0.999998L 6.09562e-06 1ZM 16.0779 1.52035e-06L 16.0779 17.038L 18.0779 17.038L 18.0779 1.52035e-06L 16.0779 1.52035e-06ZM 17.0779 16.038L 6.09562e-06 16.038L 6.09562e-06 18.038L 17.0779 18.038L 17.0779 16.038ZM 1.00001 17.038L 1.00001 1.52035e-06L -0.999994 1.52035e-06L -0.999994 17.038L 1.00001 17.038Z"/>
<path id="path12_stroke" d="M 0.619887 13.6526L -0.376109 13.742C -0.345081 14.0876 -0.137039 14.3925 0.173535 14.5474L 0.619887 13.6526ZM 0.81964 13.7522L 1.26602 12.8574L 1.26599 12.8573L 0.81964 13.7522ZM 0.81964 16.6417L 0.373262 15.7469C 0.00539542 15.9304 -0.212688 16.3203 -0.176472 16.7298L 0.81964 16.6417ZM 2.91691 40.3555L 1.9208 40.4436C 1.96645 40.9597 2.39877 41.3555 2.91691 41.3555L 2.91691 40.3555ZM 9.90786 40.3555L 9.90786 41.3555C 10.426 41.3555 10.8583 40.9597 10.904 40.4436L 9.90786 40.3555ZM 12.0051 16.6417L 13.0013 16.7298C 13.0375 16.3203 12.8194 15.9304 12.4515 15.7469L 12.0051 16.6417ZM 12.2049 13.6526L 12.6513 14.5474C 12.9605 14.3932 13.1682 14.0902 13.2005 13.7461L 12.2049 13.6526ZM 12.8041 7.27576L 13.7997 7.36932C 13.8002 7.36443 13.8006 7.35954 13.801 7.35464L 12.8041 7.27576ZM 0.0206719 6.97684L -0.976267 7.05573L -0.975324 7.06625L 0.0206719 6.97684ZM 0.173535 14.5474L 0.373289 14.6471L 1.26599 12.8573L 1.06624 12.7577L 0.173535 14.5474ZM 0.373262 14.6471C 0.833547 14.8767 0.833547 15.5172 0.373262 15.7469L 1.26602 17.5365C 3.20263 16.5705 3.20263 13.8234 1.26602 12.8574L 0.373262 14.6471ZM -0.176472 16.7298L 1.9208 40.4436L 3.91303 40.2674L 1.81575 16.5536L -0.176472 16.7298ZM 2.91691 41.3555L 9.90786 41.3555L 9.90786 39.3555L 2.91691 39.3555L 2.91691 41.3555ZM 10.904 40.4436L 13.0013 16.7298L 11.009 16.5536L 8.91175 40.2674L 10.904 40.4436ZM 12.4515 15.7469C 11.9912 15.5172 11.9912 14.8767 12.4515 14.6471L 11.5588 12.8574C 9.62216 13.8234 9.62216 16.5705 11.5588 17.5365L 12.4515 15.7469ZM 12.4515 14.6471L 12.6513 14.5474L 11.7585 12.7577L 11.5588 12.8574L 12.4515 14.6471ZM 13.2005 13.7461L 13.7997 7.36932L 11.8085 7.1822L 11.2093 13.559L 13.2005 13.7461ZM 13.801 7.35464C 14.1417 3.04976 10.9578 -0.881424 6.53851 -0.997448L 6.48602 1.00186C 9.65694 1.08511 12.0658 3.92929 11.8072 7.19687L 13.801 7.35464ZM 6.53851 -0.997448C 2.12432 -1.11334 -1.32064 2.70321 -0.976212 7.05573L 1.01756 6.89796C 0.762755 3.67802 3.31004 0.918479 6.48602 1.00186L 6.53851 -0.997448ZM -0.975324 7.06625L -0.376109 13.742L 1.61588 13.5632L 1.01667 6.88744L -0.975324 7.06625Z"/>
<path id="path13_stroke" d="M -3.04781e-06 -1.52035e-06L -3.04781e-06 -1C -0.552288 -1 -1 -0.552286 -1 -1.52035e-06L -3.04781e-06 -1.52035e-06ZM 5.99224 -1.52035e-06L 6.99224 -1.52035e-06C 6.99224 -0.552286 6.54452 -1 5.99224 -1L 5.99224 -1.52035e-06ZM 5.99224 9.36594L 5.99224 10.3659C 6.54452 10.3659 6.99224 9.91823 6.99224 9.36594L 5.99224 9.36594ZM -3.04781e-06 9.36594L -1 9.36594C -1 9.91823 -0.552288 10.3659 -3.04781e-06 10.3659L -3.04781e-06 9.36594ZM -3.04781e-06 0.999998L 5.99224 0.999998L 5.99224 -1L -3.04781e-06 -1L -3.04781e-06 0.999998ZM 4.99224 -1.52035e-06L 4.99224 9.36594L 6.99224 9.36594L 6.99224 -1.52035e-06L 4.99224 -1.52035e-06ZM 5.99224 8.36594L -3.04781e-06 8.36594L -3.04781e-06 10.3659L 5.99224 10.3659L 5.99224 8.36594ZM 0.999997 9.36594L 0.999997 -1.52035e-06L -1 -1.52035e-06L -1 9.36594L 0.999997 9.36594Z"/>
<path id="path14_stroke" d="M 16.1778 8.56884C 16.1778 12.7468 12.7823 16.1377 8.58887 16.1377L 8.58887 18.1377C 13.8825 18.1377 18.1778 13.8558 18.1778 8.56884L 16.1778 8.56884ZM 8.58887 16.1377C 4.39545 16.1377 1.00001 12.7468 1.00001 8.56884L -0.999994 8.56884C -0.999994 13.8558 3.29528 18.1377 8.58887 18.1377L 8.58887 16.1377ZM 1.00001 8.56884C 1.00001 4.39088 4.39545 1 8.58887 1L 8.58887 -0.999998C 3.29528 -0.999998 -0.999994 3.28192 -0.999994 8.56884L 1.00001 8.56884ZM 8.58887 1C 12.7823 1 16.1778 4.39089 16.1778 8.56884L 18.1778 8.56884C 18.1778 3.28191 13.8825 -0.999998 8.58887 -0.999998L 8.58887 1Z"/>
<path id="path15_stroke" d="M 1.19844 34.6739L 2.16365 34.4124C 2.16091 34.4023 2.158 34.3922 2.15493 34.3821L 1.19844 34.6739ZM 3.79509 45.933L 2.80738 46.0893C 2.85617 46.3976 3.0461 46.6654 3.3209 46.8134C 3.59569 46.9614 3.92383 46.9726 4.20809 46.8437L 3.79509 45.933ZM 10.5863 45.933L 10.2156 46.8617C 10.4939 46.9728 10.8072 46.9532 11.0694 46.8085C 11.3317 46.6638 11.5153 46.4091 11.5697 46.1145L 10.5863 45.933ZM 13.1829 34.6739L 14.1482 34.9354L 14.1504 34.9269L 13.1829 34.6739ZM 11.4851 14.9457L 11.4851 13.9457C 11.1237 13.9457 10.7905 14.1406 10.6134 14.4557C 10.4363 14.7707 10.443 15.1568 10.6309 15.4655L 11.4851 14.9457ZM 13.2828 13.5507L 12.3023 13.3542C 12.2975 13.3781 12.2936 13.4022 12.2906 13.4264L 13.2828 13.5507ZM 11.3852 11.6576L 10.4625 11.2722C 10.3336 11.5809 10.3675 11.9336 10.553 12.212C 10.7384 12.4904 11.0507 12.6576 11.3852 12.6576L 11.3852 11.6576ZM 2.79638 11.6576L 2.79638 12.6576C 3.11795 12.6576 3.4199 12.503 3.60783 12.242C 3.79576 11.9811 3.84674 11.6457 3.74484 11.3407L 2.79638 11.6576ZM 0.89883 13.0525L 1.87932 13.2491C 1.88412 13.2252 1.88804 13.2011 1.89107 13.1769L 0.89883 13.0525ZM 2.6965 14.9457L 3.56425 15.4427C 3.74151 15.1332 3.74052 14.7527 3.56167 14.4442C 3.38281 14.1356 3.05315 13.9457 2.6965 13.9457L 2.6965 14.9457ZM 2.83849e-14 26.9022L -1 26.9022C -1 26.926 -0.999148 26.9498 -0.997447 26.9736L 2.83849e-14 26.9022ZM 0.233235 34.9354C 1.23271 38.6248 2.21763 42.3629 2.80738 46.0893L 4.78279 45.7767C 4.17409 41.9305 3.16159 38.0962 2.16365 34.4124L 0.233235 34.9354ZM 4.20809 46.8437C 5.15787 46.413 6.11216 46.2355 7.19068 46.2355L 7.19068 44.2355C 5.87231 44.2355 4.62946 44.4566 3.38208 45.0222L 4.20809 46.8437ZM 7.19068 46.2355C 8.23196 46.2355 9.30309 46.4976 10.2156 46.8617L 10.9569 45.0042C 9.87209 44.5713 8.5463 44.2355 7.19068 44.2355L 7.19068 46.2355ZM 11.5697 46.1145C 12.2627 42.361 13.1548 38.602 14.1481 34.9354L 12.2177 34.4124C 11.2136 38.119 10.308 41.9325 9.60292 45.7514L 11.5697 46.1145ZM 14.1504 34.9269C 14.7695 32.5592 15.1816 29.784 15.1816 26.9022L 13.1816 26.9022C 13.1816 29.6001 12.7948 32.2053 12.2154 34.4209L 14.1504 34.9269ZM 15.1816 26.9022C 15.1816 21.9113 14.1651 17.4258 12.3394 14.4258L 10.6309 15.4655C 12.2008 18.0452 13.1816 22.1285 13.1816 26.9022L 15.1816 26.9022ZM 11.4851 15.9457L 11.585 15.9457L 11.585 13.9457L 11.4851 13.9457L 11.4851 15.9457ZM 11.585 15.9457C 12.7978 15.9457 14.1019 15.0573 14.275 13.675L 12.2906 13.4264C 12.264 13.6384 11.9702 13.9457 11.585 13.9457L 11.585 15.9457ZM 14.2633 13.7473C 14.5966 12.0844 13.2653 10.6576 11.6849 10.6576L 11.6849 12.6576C 12.1018 12.6576 12.3684 13.0243 12.3023 13.3542L 14.2633 13.7473ZM 11.6849 10.6576L 11.3852 10.6576L 11.3852 12.6576L 11.6849 12.6576L 11.6849 10.6576ZM 12.308 12.043C 12.8725 10.6913 13.0844 9.25636 13.0844 7.6721L 11.0844 7.6721C 11.0844 9.07698 10.8967 10.2326 10.4625 11.2722L 12.308 12.043ZM 13.0844 7.6721C 13.0844 5.41624 12.4942 3.30402 11.4768 1.72511C 10.4649 0.154687 8.94198 -1 7.09082 -1L 7.09082 1C 8.03604 1 9.00987 1.58897 9.79563 2.80841C 10.5759 4.01935 11.0844 5.74319 11.0844 7.6721L 13.0844 7.6721ZM 7.09082 -1C 5.2505 -1 3.72562 0.117655 2.70703 1.68431C 1.68578 3.25507 1.09729 5.37001 1.09729 7.6721L 3.09729 7.6721C 3.09729 5.68977 3.60738 3.96866 4.38379 2.77448C 5.16288 1.57619 6.13477 1 7.09082 1L 7.09082 -1ZM 1.09729 7.6721C 1.09729 9.30634 1.42616 10.7122 1.84792 11.9745L 3.74484 11.3407C 3.36763 10.2117 3.09729 9.02699 3.09729 7.6721L 1.09729 7.6721ZM 2.79638 10.6576L 2.59664 10.6576L 2.59664 12.6576L 2.79638 12.6576L 2.79638 10.6576ZM 2.59664 10.6576C 1.38388 10.6576 0.07977 11.546 -0.0934125 12.9282L 1.89107 13.1769C 1.91763 12.9649 2.21147 12.6576 2.59664 12.6576L 2.59664 10.6576ZM -0.0816628 12.856C -0.415021 14.5189 0.916324 15.9457 2.49677 15.9457L 2.49677 13.9457C 2.0798 13.9457 1.8132 13.5789 1.87932 13.2491L -0.0816628 12.856ZM 2.49677 15.9457L 2.6965 15.9457L 2.6965 13.9457L 2.49677 13.9457L 2.49677 15.9457ZM 1.82876 14.4486C 0.123623 17.4257 -1 21.9918 -1 26.9022L 1 26.9022C 1 22.2473 2.07352 18.0453 3.56425 15.4427L 1.82876 14.4486ZM -0.997447 26.9736C -0.797068 29.7724 -0.492273 32.5588 0.24196 34.9657L 2.15493 34.3821C 1.49097 32.2057 1.19655 29.6117 0.997447 26.8308L -0.997447 26.9736Z"/>
<path id="path16_stroke" d="M -3.04781e-06 0L 0.405344 -0.914163C 0.0960334 -1.05131 -0.261652 -1.02275 -0.54528 -0.838256C -0.828907 -0.65376 -1 -0.338354 -1 2.02985e-16L -3.04781e-06 0ZM -3.04781e-06 9.96377L -1 9.96377C -1 10.5161 -0.552288 10.9638 -3.04781e-06 10.9638L -3.04781e-06 9.96377ZM 5.99224 9.96377L 5.99224 10.9638C 6.54452 10.9638 6.99224 10.5161 6.99224 9.96377L 5.99224 9.96377ZM 5.99224 0L 6.99224 0C 6.99224 -0.338354 6.82114 -0.65376 6.53751 -0.838256C 6.25388 -1.02275 5.8962 -1.05131 5.58689 -0.914163L 5.99224 0ZM 2.99612 -0.402175C 2.02073 -0.402175 1.16233 -0.578511 0.405344 -0.914163L -0.40535 0.914163C 0.63534 1.37561 1.77435 1.59782 2.99612 1.59782L 2.99612 -0.402175ZM -1 0L -1 9.96377L 0.999997 9.96377L 0.999997 0L -1 0ZM -3.04781e-06 10.9638L 5.99224 10.9638L 5.99224 8.96377L -3.04781e-06 8.96377L -3.04781e-06 10.9638ZM 6.99224 9.96377L 6.99224 0L 4.99224 0L 4.99224 9.96377L 6.99224 9.96377ZM 5.58689 -0.914163C 4.82991 -0.578512 3.9715 -0.402175 2.99612 -0.402175L 2.99612 1.59782C 4.21789 1.59782 5.35689 1.37561 6.39758 0.914163L 5.58689 -0.914163Z"/>
<path id="path17_stroke" d="M 16.1777 8.56884C 16.1777 12.7468 12.7823 16.1377 8.58887 16.1377L 8.58887 18.1377C 13.8825 18.1377 18.1777 13.8558 18.1777 8.56884L 16.1777 8.56884ZM 8.58887 16.1377C 4.39545 16.1377 1 12.7468 1 8.56884L -0.999998 8.56884C -0.999998 13.8558 3.29529 18.1377 8.58887 18.1377L 8.58887 16.1377ZM 1 8.56884C 1 4.39089 4.39545 1 8.58887 1L 8.58887 -0.999998C 3.29529 -0.999998 -0.999998 3.28192 -0.999998 8.56884L 1 8.56884ZM 8.58887 1C 12.7823 1 16.1777 4.39089 16.1777 8.56884L 18.1777 8.56884C 18.1777 3.28192 13.8825 -0.999998 8.58887 -0.999998L 8.58887 1Z"/>
<path id="path18_stroke" d="M 0 0L 0.405347 -0.914163C 0.0960365 -1.05131 -0.261649 -1.02275 -0.545277 -0.838256C -0.828904 -0.65376 -1 -0.338354 -1 2.02985e-16L 0 0ZM 0 9.96377L -1 9.96377C -1 10.5161 -0.552285 10.9638 2.22045e-16 10.9638L 0 9.96377ZM 5.99224 9.96377L 5.99224 10.9638C 6.54452 10.9638 6.99224 10.5161 6.99224 9.96377L 5.99224 9.96377ZM 5.99224 0L 6.99224 0C 6.99224 -0.338354 6.82114 -0.65376 6.53751 -0.838256C 6.25389 -1.02275 5.8962 -1.05131 5.58689 -0.914163L 5.99224 0ZM 2.99612 -0.402175C 2.02074 -0.402175 1.16233 -0.578511 0.405347 -0.914163L -0.405347 0.914163C 0.635343 1.37561 1.77435 1.59782 2.99612 1.59782L 2.99612 -0.402175ZM -1 0L -1 9.96377L 1 9.96377L 1 0L -1 0ZM 0 10.9638L 5.99224 10.9638L 5.99224 8.96377L 0 8.96377L 0 10.9638ZM 6.99224 9.96377L 6.99224 0L 4.99224 0L 4.99224 9.96377L 6.99224 9.96377ZM 5.58689 -0.914163C 4.82991 -0.578511 3.9715 -0.402175 2.99612 -0.402175L 2.99612 1.59782C 4.21789 1.59782 5.35689 1.37561 6.39758 0.914163L 5.58689 -0.914163Z"/>
<path id="path19_stroke" d="M 10.3865 40.9511L 10.0159 41.8799C 10.3096 41.9971 10.6414 41.9684 10.9107 41.8027C 11.18 41.6369 11.3551 41.3536 11.3827 41.0385L 10.3865 40.9511ZM 13.9819 0L 14.9781 0.0874596C 15.0026 -0.191889 14.9087 -0.468699 14.7193 -0.675478C 14.5299 -0.882256 14.2623 -1 13.9819 -1L 13.9819 0ZM 0 0L 0 -1C -0.280386 -1 -0.547892 -0.882287 -0.737309 -0.675556C -0.926725 -0.468825 -1.02065 -0.192068 -0.996187 0.0872489L 0 0ZM 3.59534 41.0507L 2.59915 41.138C 2.62803 41.4676 2.81811 41.7616 3.10685 41.9233C 3.39559 42.0849 3.7456 42.0933 4.04172 41.9456L 3.59534 41.0507ZM 6.99094 41.2536C 8.03222 41.2536 9.10334 41.5157 10.0159 41.8799L 10.7572 40.0223C 9.67234 39.5894 8.34656 39.2536 6.99094 39.2536L 6.99094 41.2536ZM 11.3827 41.0385L 14.9781 0.0874596L 12.9857 -0.0874596L 9.39038 40.8636L 11.3827 41.0385ZM 13.9819 -1L 0 -1L 0 1L 13.9819 1L 13.9819 -1ZM -0.996187 0.0872489L 2.59915 41.138L 4.59153 40.9635L 0.996187 -0.0872489L -0.996187 0.0872489ZM 4.04172 41.9456C 4.90529 41.5148 5.95129 41.2536 6.99094 41.2536L 6.99094 39.2536C 5.6337 39.2536 4.28281 39.5903 3.14896 40.1559L 4.04172 41.9456Z"/>
<path id="path20_stroke" d="M 3.04781e-06 0L 3.04781e-06 -1C -0.552282 -1 -0.999997 -0.552285 -0.999997 2.22045e-16L 3.04781e-06 0ZM 5.99224 0L 6.99224 0C 6.99224 -0.552285 6.54453 -1 5.99224 -1L 5.99224 0ZM 5.99224 10.9601L 5.99224 11.9601C 6.54453 11.9601 6.99224 11.5124 6.99224 10.9601L 5.99224 10.9601ZM 3.04781e-06 10.9601L -0.999997 10.9601C -0.999997 11.5124 -0.552282 11.9601 3.04781e-06 11.9601L 3.04781e-06 10.9601ZM 3.04781e-06 1L 5.99224 1L 5.99224 -1L 3.04781e-06 -1L 3.04781e-06 1ZM 4.99224 0L 4.99224 10.9601L 6.99224 10.9601L 6.99224 0L 4.99224 0ZM 5.99224 9.96014L 3.04781e-06 9.96014L 3.04781e-06 11.9601L 5.99224 11.9601L 5.99224 9.96014ZM 1 10.9601L 1 0L -0.999997 0L -0.999997 10.9601L 1 10.9601Z"/>
<path id="path21_stroke" d="M 14.5798 7.77174C 14.5798 11.5095 11.5421 14.5435 7.78991 14.5435L 7.78991 16.5435C 12.6422 16.5435 16.5798 12.6184 16.5798 7.77174L 14.5798 7.77174ZM 7.78991 14.5435C 4.03775 14.5435 1 11.5095 1 7.77174L -1 7.77174C -1 12.6184 2.93758 16.5435 7.78991 16.5435L 7.78991 14.5435ZM 1 7.77174C 1 4.03401 4.03775 1 7.78991 1L 7.78991 -1C 2.93758 -1 -1 2.92504 -1 7.77174L 1 7.77174ZM 7.78991 1C 11.5421 1 14.5798 4.03401 14.5798 7.77174L 16.5798 7.77174C 16.5798 2.92504 12.6422 -1 7.78991 -1L 7.78991 1Z"/>
<path id="path22_stroke" d="M 3.04781e-06 7.60175e-07L 3.04781e-06 -0.999999C -0.552282 -0.999999 -0.999997 -0.552284 -0.999997 7.60175e-07L 3.04781e-06 7.60175e-07ZM 9.98707 7.60175e-07L 10.9871 7.60175e-07C 10.9871 -0.552284 10.5394 -0.999999 9.98707 -0.999999L 9.98707 7.60175e-07ZM 9.98707 42.1467L 9.98707 43.1467C 10.5394 43.1467 10.9871 42.699 10.9871 42.1467L 9.98707 42.1467ZM 3.04781e-06 42.1467L -0.999997 42.1467C -0.999997 42.699 -0.552282 43.1467 3.04781e-06 43.1467L 3.04781e-06 42.1467ZM 3.04781e-06 1L 9.98707 1L 9.98707 -0.999999L 3.04781e-06 -0.999999L 3.04781e-06 1ZM 8.98707 7.60175e-07L 8.98707 42.1467L 10.9871 42.1467L 10.9871 7.60175e-07L 8.98707 7.60175e-07ZM 9.98707 41.1467L 3.04781e-06 41.1467L 3.04781e-06 43.1467L 9.98707 43.1467L 9.98707 41.1467ZM 1 42.1467L 1 7.60175e-07L -0.999997 7.60175e-07L -0.999997 42.1467L 1 42.1467Z"/>
<path id="path23_stroke" d="M 1 0C 1 -0.552285 0.552288 -1 3.05176e-06 -1C -0.552282 -1 -0.999997 -0.552285 -0.999997 0L 1 0ZM -0.999997 3.18841C -0.999997 3.74069 -0.552282 4.18841 3.05176e-06 4.18841C 0.552288 4.18841 1 3.74069 1 3.18841L -0.999997 3.18841ZM -0.999997 0L -0.999997 3.18841L 1 3.18841L 1 0L -0.999997 0Z"/>
<path id="path24_stroke" d="M 8.98706 4.98188C 8.98706 7.17882 7.2013 8.96377 4.99353 8.96377L 4.99353 10.9638C 8.30146 10.9638 10.9871 8.28779 10.9871 4.98188L 8.98706 4.98188ZM 4.99353 8.96377C 2.78576 8.96377 0.999994 7.17882 0.999994 4.98188L -1.00001 4.98188C -1.00001 8.28779 1.68559 10.9638 4.99353 10.9638L 4.99353 8.96377ZM 0.999994 4.98188C 0.999994 2.78495 2.78576 1 4.99353 1L 4.99353 -0.999999C 1.68559 -0.999999 -1.00001 1.67598 -1.00001 4.98188L 0.999994 4.98188ZM 4.99353 1C 7.2013 1 8.98706 2.78495 8.98706 4.98188L 10.9871 4.98188C 10.9871 1.67598 8.30146 -0.999999 4.99353 -0.999999L 4.99353 1Z"/>
<path id="path25_stroke" d="M -6.09562e-06 0L -6.09562e-06 -1C -0.552291 -1 -1.00001 -0.552285 -1.00001 2.22045e-16L -6.09562e-06 0ZM 5.99223 0L 6.99223 0C 6.99223 -0.552285 6.54452 -1 5.99223 -1L 5.99223 0ZM 5.99223 10.9601L 5.99223 11.9601C 6.54452 11.9601 6.99223 11.5124 6.99223 10.9601L 5.99223 10.9601ZM -6.09562e-06 10.9601L -1.00001 10.9601C -1.00001 11.5124 -0.552291 11.9601 -6.09562e-06 11.9601L -6.09562e-06 10.9601ZM -6.09562e-06 1L 5.99223 1L 5.99223 -1L -6.09562e-06 -1L -6.09562e-06 1ZM 4.99223 0L 4.99223 10.9601L 6.99223 10.9601L 6.99223 0L 4.99223 0ZM 5.99223 9.96014L -6.09562e-06 9.96014L -6.09562e-06 11.9601L 5.99223 11.9601L 5.99223 9.96014ZM 0.999994 10.9601L 0.999994 0L -1.00001 0L -1.00001 10.9601L 0.999994 10.9601Z"/>
<path id="path26_stroke" d="M 3.04781e-06 4.75109e-08L 3.04781e-06 -1C -0.552282 -1 -0.999997 -0.552285 -0.999997 4.75109e-08L 3.04781e-06 4.75109e-08ZM 15.0805 4.75109e-08L 16.0805 4.75109e-08C 16.0805 -0.552285 15.6327 -1 15.0805 -1L 15.0805 4.75109e-08ZM 15.0805 8.07065L 15.0805 9.07065C 15.6327 9.07065 16.0805 8.62294 16.0805 8.07065L 15.0805 8.07065ZM 3.04781e-06 8.07065L -0.999997 8.07065C -0.999997 8.62294 -0.552282 9.07065 3.04781e-06 9.07065L 3.04781e-06 8.07065ZM 3.04781e-06 1L 15.0805 1L 15.0805 -1L 3.04781e-06 -1L 3.04781e-06 1ZM 14.0805 4.75109e-08L 14.0805 8.07065L 16.0805 8.07065L 16.0805 4.75109e-08L 14.0805 4.75109e-08ZM 15.0805 7.07065L 3.04781e-06 7.07065L 3.04781e-06 9.07065L 15.0805 9.07065L 15.0805 7.07065ZM 1 8.07065L 1 4.75109e-08L -0.999997 4.75109e-08L -0.999997 8.07065L 1 8.07065Z"/>
<path id="path27_stroke" d="M 0 3.80088e-07L 0 -1C -0.552285 -1 -1 -0.552284 -1 3.80088e-07L 0 3.80088e-07ZM 19.7744 3.80088e-07L 20.7744 3.80088e-07C 20.7744 -0.552284 20.3267 -1 19.7744 -1L 19.7744 3.80088e-07ZM 19.7744 19.7283L 19.7744 20.7283C 20.3267 20.7283 20.7744 20.2805 20.7744 19.7283L 19.7744 19.7283ZM 0 19.7283L -1 19.7283C -1 20.2805 -0.552285 20.7283 2.22045e-16 20.7283L 0 19.7283ZM 0 1L 19.7744 1L 19.7744 -1L 0 -1L 0 1ZM 18.7744 3.80088e-07L 18.7744 19.7283L 20.7744 19.7283L 20.7744 3.80088e-07L 18.7744 3.80088e-07ZM 19.7744 18.7283L 0 18.7283L 0 20.7283L 19.7744 20.7283L 19.7744 18.7283ZM 1 19.7283L 1 3.80088e-07L -1 3.80088e-07L -1 19.7283L 1 19.7283Z"/>
<path id="path28_stroke" d="M 7.7899 5.77898L 6.99057 6.37988C 7.24909 6.72377 7.69859 6.86377 8.10666 6.72749C 8.51473 6.59121 8.7899 6.20921 8.7899 5.77898L 7.7899 5.77898ZM 7.7899 -7.60175e-07L 8.7899 -7.60175e-07C 8.7899 -0.552285 8.34218 -1 7.7899 -1L 7.7899 -7.60175e-07ZM 0 -7.60175e-07L 0 -1C -0.552285 -1 -1 -0.552285 -1 -7.60175e-07L 0 -7.60175e-07ZM 0 5.77898L -1 5.77898C -1 6.20145 -0.734517 6.57833 -0.336726 6.72059C 0.061066 6.86284 0.505339 6.73977 0.773232 6.41311L 0 5.77898ZM 3.89495 4.88587C 5.19044 4.88587 6.28769 5.44489 6.99057 6.37988L 8.58922 5.17809C 7.49444 3.72178 5.79532 2.88587 3.89495 2.88587L 3.89495 4.88587ZM 8.7899 5.77898L 8.7899 -7.60175e-07L 6.7899 -7.60175e-07L 6.7899 5.77898L 8.7899 5.77898ZM 7.7899 -1L 0 -1L 0 0.999999L 7.7899 0.999999L 7.7899 -1ZM -1 -7.60175e-07L -1 5.77898L 1 5.77898L 1 -7.60175e-07L -1 -7.60175e-07ZM 0.773232 6.41311C 1.50935 5.51551 2.63699 4.88587 3.89495 4.88587L 3.89495 2.88587C 1.95705 2.88587 0.288323 3.85043 -0.773232 5.14486L 0.773232 6.41311Z"/>
<path id="path29_stroke" d="M 0 -7.60175e-07L 0.799327 -0.600897C 0.540807 -0.944787 0.0913104 -1.08478 -0.31676 -0.948507C -0.72483 -0.812229 -1 -0.430225 -1 -7.60175e-07L 0 -7.60175e-07ZM 0 15.6431L -1 15.6431C -1 16.1954 -0.552285 16.6431 2.22045e-16 16.6431L 0 15.6431ZM 7.7899 15.6431L 7.7899 16.6431C 8.34218 16.6431 8.7899 16.1954 8.7899 15.6431L 7.7899 15.6431ZM 7.7899 0.0996392L 8.7899 0.0996392C 8.7899 -0.313287 8.53609 -0.683749 8.15104 -0.832873C 7.76598 -0.981996 7.32886 -0.879111 7.05074 -0.573893L 7.7899 0.0996392ZM 3.89495 0.893117C 2.59946 0.893117 1.50221 0.334097 0.799327 -0.600897L -0.799327 0.600896C 0.295459 2.05721 1.99458 2.89312 3.89495 2.89312L 3.89495 0.893117ZM -1 -7.60175e-07L -1 15.6431L 1 15.6431L 1 -7.60175e-07L -1 -7.60175e-07ZM 0 16.6431L 7.7899 16.6431L 7.7899 14.6431L 0 14.6431L 0 16.6431ZM 8.7899 15.6431L 8.7899 0.0996392L 6.7899 0.0996392L 6.7899 15.6431L 8.7899 15.6431ZM 7.05074 -0.573893C 6.21739 0.340658 5.07772 0.893117 3.89495 0.893117L 3.89495 2.89312C 5.7083 2.89312 7.365 2.05065 8.52905 0.773172L 7.05074 -0.573893Z"/>
<path id="path30_stroke" d="M 0 1.90044e-07L 0 -1C -0.552285 -1 -1 -0.552285 -1 1.90044e-07L 0 1.90044e-07ZM 7.7899 1.90044e-07L 8.7899 1.90044e-07C 8.7899 -0.552285 8.34218 -1 7.7899 -1L 7.7899 1.90044e-07ZM 7.7899 5.2808L 7.7899 6.2808C 8.34218 6.2808 8.7899 5.83308 8.7899 5.2808L 7.7899 5.2808ZM 0 5.2808L -1 5.2808C -1 5.83308 -0.552285 6.2808 2.22045e-16 6.2808L 0 5.2808ZM 0 1L 7.7899 1L 7.7899 -1L 0 -1L 0 1ZM 6.7899 1.90044e-07L 6.7899 5.2808L 8.7899 5.2808L 8.7899 1.90044e-07L 6.7899 1.90044e-07ZM 7.7899 4.2808L 0 4.2808L 0 6.2808L 7.7899 6.2808L 7.7899 4.2808ZM 1 5.2808L 1 1.90044e-07L -1 1.90044e-07L -1 5.2808L 1 5.2808Z"/>
<path id="path31_stroke" d="M 16.1777 6.77536C 16.1777 9.75697 13.0141 12.5507 8.58887 12.5507L 8.58887 14.5507C 13.6506 14.5507 18.1777 11.2776 18.1777 6.77536L 16.1777 6.77536ZM 8.58887 12.5507C 4.16361 12.5507 0.999988 9.75697 0.999988 6.77536L -1.00001 6.77536C -1.00001 11.2776 3.52711 14.5507 8.58887 14.5507L 8.58887 12.5507ZM 0.999988 6.77536C 0.999988 3.79375 4.16361 1 8.58887 1L 8.58887 -0.999999C 3.52711 -0.999999 -1.00001 2.27311 -1.00001 6.77536L 0.999988 6.77536ZM 8.58887 1C 13.0141 1 16.1777 3.79375 16.1777 6.77536L 18.1777 6.77536C 18.1777 2.27311 13.6506 -0.999999 8.58887 -0.999999L 8.58887 1Z"/>
<path id="path32_stroke" d="M 0 -0.999999C -0.552285 -0.999999 -1 -0.552284 -1 7.62939e-07C -1 0.552285 -0.552285 1 0 1L 0 -0.999999ZM 5.69264 1C 6.24492 1 6.69264 0.552285 6.69264 7.62939e-07C 6.69264 -0.552284 6.24492 -0.999999 5.69264 -0.999999L 5.69264 1ZM 0 1L 5.69264 1L 5.69264 -0.999999L 0 -0.999999L 0 1Z"/>
<path id="path33_stroke" d="M 0 -1C -0.552285 -1 -1 -0.552285 -1 0C -1 0.552285 -0.552285 1 0 1L 0 -1ZM 9.68746 1C 10.2397 1 10.6875 0.552285 10.6875 0C 10.6875 -0.552285 10.2397 -1 9.68746 -1L 9.68746 1ZM 0 1L 9.68746 1L 9.68746 -1L 0 -1L 0 1Z"/>
<path id="path34_stroke" d="M -6.09562e-06 0.0996392L 0.216442 -0.876655C -0.0796029 -0.942289 -0.389438 -0.870048 -0.625926 -0.680248C -0.862414 -0.490448 -1.00001 -0.203594 -1.00001 0.0996392L -6.09562e-06 0.0996392ZM -6.09562e-06 10.6612L -1.00001 10.6612C -1.00001 11.2135 -0.552291 11.6612 -6.09562e-06 11.6612L -6.09562e-06 10.6612ZM 5.99223 10.6612L 5.99223 11.6612C 6.54452 11.6612 6.99223 11.2135 6.99223 10.6612L 5.99223 10.6612ZM 5.99223 -7.60175e-07L 6.99223 -7.60175e-07C 6.99223 -0.321321 6.83783 -0.623068 6.57723 -0.811038C 6.31662 -0.999009 5.98157 -1.0503 5.67667 -0.948905L 5.99223 -7.60175e-07ZM 2.99611 -0.501812C 2.01371 -0.501812 1.10517 -0.67962 0.216442 -0.876655L -0.216454 1.07593C 0.692487 1.27745 1.78136 1.49819 2.99611 1.49819L 2.99611 -0.501812ZM -1.00001 0.0996392L -1.00001 10.6612L 0.999994 10.6612L 0.999994 0.0996392L -1.00001 0.0996392ZM -6.09562e-06 11.6612L 5.99223 11.6612L 5.99223 9.66123L -6.09562e-06 9.66123L -6.09562e-06 11.6612ZM 6.99223 10.6612L 6.99223 -7.60175e-07L 4.99223 -7.60175e-07L 4.99223 10.6612L 6.99223 10.6612ZM 5.67667 -0.948905C 4.8632 -0.678383 3.97143 -0.501812 2.99611 -0.501812L 2.99611 1.49819C 4.21795 1.49819 5.32359 1.27621 6.3078 0.948904L 5.67667 -0.948905Z"/>
<path id="path35_stroke" d="M 13.1829 46.5308L 12.8962 47.4888C 13.1729 47.5716 13.472 47.5307 13.7163 47.3767C 13.9607 47.2226 14.1265 46.9703 14.171 46.6849L 13.1829 46.5308ZM 19.9741 2.98913L 20.9622 3.14324C 21.025 2.74072 20.8373 2.34035 20.4877 2.13111L 19.9741 2.98913ZM 14.9806 0L 15.4942 -0.858022C 15.339 -0.950932 15.1615 -1 14.9806 -1L 14.9806 0ZM 4.99353 0L 4.99353 -1C 4.81263 -1 4.63512 -0.950932 4.47991 -0.858022L 4.99353 0ZM -6.09562e-06 2.98913L -0.513619 2.13111C -0.863167 2.34035 -1.05084 2.74072 -0.98806 3.14324L -6.09562e-06 2.98913ZM 6.79122 46.5308L 5.80316 46.6849C 5.84768 46.9703 6.01345 47.2226 6.2578 47.3767C 6.50215 47.5307 6.8012 47.5716 7.07795 47.4888L 6.79122 46.5308ZM 9.98706 47.0326C 10.9686 47.0326 11.9693 47.2114 12.8962 47.4888L 13.4697 45.5728C 12.3991 45.2524 11.2026 45.0326 9.98706 45.0326L 9.98706 47.0326ZM 14.171 46.6849L 20.9622 3.14324L 18.9861 2.83502L 12.1949 46.3767L 14.171 46.6849ZM 20.4877 2.13111L 15.4942 -0.858022L 14.467 0.858022L 19.4605 3.84715L 20.4877 2.13111ZM 14.9806 -1L 4.99353 -1L 4.99353 1L 14.9806 1L 14.9806 -1ZM 4.47991 -0.858022L -0.513619 2.13111L 0.513606 3.84715L 5.50714 0.858022L 4.47991 -0.858022ZM -0.98806 3.14324L 5.80316 46.6849L 7.77927 46.3767L 0.988048 2.83502L -0.98806 3.14324ZM 7.07795 47.4888C 8.00483 47.2114 9.00549 47.0326 9.98706 47.0326L 9.98706 45.0326C 8.77147 45.0326 7.57501 45.2524 6.50448 45.5728L 7.07795 47.4888Z"/>
<path id="path36_stroke" d="M 1.21771e-05 7.61066e-07L 1.21771e-05 -0.999999C -0.552273 -0.999999 -0.999988 -0.552284 -0.999988 7.61066e-07L 1.21771e-05 7.61066e-07ZM 12.4693 7.61066e-07L 13.4693 7.61066e-07C 13.4693 -0.552284 13.0216 -0.999999 12.4693 -0.999999L 12.4693 7.61066e-07ZM 12.4693 12.4693L 12.4693 13.4693C 13.0216 13.4693 13.4693 13.0216 13.4693 12.4693L 12.4693 12.4693ZM 1.21771e-05 12.4693L -0.999988 12.4693C -0.999988 13.0216 -0.552273 13.4693 1.21771e-05 13.4693L 1.21771e-05 12.4693ZM 1.21771e-05 1L 12.4693 1L 12.4693 -0.999999L 1.21771e-05 -0.999999L 1.21771e-05 1ZM 11.4693 7.61066e-07L 11.4693 12.4693L 13.4693 12.4693L 13.4693 7.61066e-07L 11.4693 7.61066e-07ZM 12.4693 11.4693L 1.21771e-05 11.4693L 1.21771e-05 13.4693L 12.4693 13.4693L 12.4693 11.4693ZM 1.00001 12.4693L 1.00001 7.61066e-07L -0.999988 7.61066e-07L -0.999988 12.4693L 1.00001 12.4693Z"/>
<path id="path37_stroke" d="M 2.99612 2.98913L 2.28984 3.69706C 2.68017 4.08649 3.31207 4.08649 3.7024 3.69706L 2.99612 2.98913ZM 0 1.52035e-06L 0.706281 -0.70793C 0.420099 -0.993444 -0.00983507 -1.07857 -0.383223 -0.923654C -0.75661 -0.768737 -1 -0.404248 -1 1.52035e-06L 0 1.52035e-06ZM 0 11.0598L -1 11.0598C -1 11.6121 -0.552285 12.0598 2.22045e-16 12.0598L 0 11.0598ZM 5.99224 11.0598L 5.99224 12.0598C 6.54452 12.0598 6.99224 11.6121 6.99224 11.0598L 5.99224 11.0598ZM 5.99224 1.52035e-06L 6.99224 1.52035e-06C 6.99224 -0.404248 6.74885 -0.768737 6.37546 -0.923654C 6.00207 -1.07857 5.57214 -0.993444 5.28596 -0.70793L 5.99224 1.52035e-06ZM 3.7024 2.2812L 0.706281 -0.70793L -0.706281 0.707933L 2.28984 3.69706L 3.7024 2.2812ZM -1 1.52035e-06L -1 11.0598L 1 11.0598L 1 1.52035e-06L -1 1.52035e-06ZM 0 12.0598L 5.99224 12.0598L 5.99224 10.0598L 0 10.0598L 0 12.0598ZM 6.99224 11.0598L 6.99224 1.52035e-06L 4.99224 1.52035e-06L 4.99224 11.0598L 6.99224 11.0598ZM 5.28596 -0.70793L 2.28984 2.2812L 3.7024 3.69706L 6.69852 0.707933L 5.28596 -0.70793Z"/>
<path id="path38_stroke" d="M 6.99094 40.9511L 7.70837 40.2545C 7.52006 40.0605 7.26126 39.9511 6.99094 39.9511C 6.72063 39.9511 6.46183 40.0605 6.27352 40.2545L 6.99094 40.9511ZM 10.0869 44.1395L 9.36951 44.8361C 9.64201 45.1168 10.0531 45.2127 10.4217 45.0818C 10.7903 44.9509 11.0487 44.617 11.0831 44.2274L 10.0869 44.1395ZM 13.9819 0L 14.978 0.0879003C 15.0027 -0.191514 14.9088 -0.468438 14.7194 -0.675315C 14.53 -0.882192 14.2624 -1 13.9819 -1L 13.9819 0ZM 0 0L 0 -1C -0.2805 -1 -0.548104 -0.882192 -0.73753 -0.675315C -0.926955 -0.468438 -1.02079 -0.191514 -0.996129 0.0879003L 0 0ZM 3.89495 44.1395L 2.89882 44.2274C 2.9332 44.617 3.19161 44.9509 3.5602 45.0818C 3.92879 45.2127 4.33988 45.1168 4.61238 44.8361L 3.89495 44.1395ZM 6.27352 41.6477L 9.36951 44.8361L 10.8044 43.4429L 7.70837 40.2545L 6.27352 41.6477ZM 11.0831 44.2274L 14.978 0.0879003L 12.9858 -0.0879003L 9.09081 44.0516L 11.0831 44.2274ZM 13.9819 -1L 0 -1L 0 1L 13.9819 1L 13.9819 -1ZM -0.996129 0.0879003L 2.89882 44.2274L 4.89108 44.0516L 0.996129 -0.0879003L -0.996129 0.0879003ZM 4.61238 44.8361L 7.70837 41.6477L 6.27352 40.2545L 3.17752 43.4429L 4.61238 44.8361Z"/>
<path id="path39_stroke" d="M 16.1777 8.56884C 16.1777 12.7468 12.7823 16.1377 8.58888 16.1377L 8.58888 18.1377C 13.8825 18.1377 18.1777 13.8558 18.1777 8.56884L 16.1777 8.56884ZM 8.58888 16.1377C 4.39546 16.1377 1 12.7468 1 8.56884L -1 8.56884C -1 13.8558 3.2953 18.1377 8.58888 18.1377L 8.58888 16.1377ZM 1 8.56884C 1 4.39089 4.39546 1 8.58888 1L 8.58888 -1C 3.2953 -1 -1 3.28191 -1 8.56884L 1 8.56884ZM 8.58888 1C 12.7823 1 16.1777 4.39088 16.1777 8.56884L 18.1777 8.56884C 18.1777 3.28192 13.8825 -1 8.58888 -1L 8.58888 1Z"/>
<path id="path40_stroke" d="M 6.09562e-06 -1.52035e-06L 6.09562e-06 -1C -0.552279 -1 -0.999994 -0.552286 -0.999994 -1.52035e-06L 6.09562e-06 -1.52035e-06ZM 5.99224 -1.52035e-06L 6.99224 -1.52035e-06C 6.99224 -0.552286 6.54453 -1 5.99224 -1L 5.99224 -1.52035e-06ZM 5.99224 9.36594L 5.99224 10.3659C 6.54453 10.3659 6.99224 9.91823 6.99224 9.36594L 5.99224 9.36594ZM 6.09562e-06 9.36594L -0.999994 9.36594C -0.999994 9.91823 -0.552279 10.3659 6.09562e-06 10.3659L 6.09562e-06 9.36594ZM 6.09562e-06 0.999998L 5.99224 0.999998L 5.99224 -1L 6.09562e-06 -1L 6.09562e-06 0.999998ZM 4.99224 -1.52035e-06L 4.99224 9.36594L 6.99224 9.36594L 6.99224 -1.52035e-06L 4.99224 -1.52035e-06ZM 5.99224 8.36594L 6.09562e-06 8.36594L 6.09562e-06 10.3659L 5.99224 10.3659L 5.99224 8.36594ZM 1.00001 9.36594L 1.00001 -1.52035e-06L -0.999994 -1.52035e-06L -0.999994 9.36594L 1.00001 9.36594Z"/>
<path id="path41_stroke" d="M 6.09562e-06 15.1449L -0.999994 15.1449C -0.999994 15.5193 -0.790866 15.8623 -0.458066 16.0338C -0.125266 16.2053 0.275453 16.1766 0.580346 15.9593L 6.09562e-06 15.1449ZM 9.98707 15.1449L 9.40673 15.9593C 9.71162 16.1766 10.1123 16.2053 10.4451 16.0338C 10.7779 15.8623 10.9871 15.5193 10.9871 15.1449L 9.98707 15.1449ZM 9.98707 4.98188L 10.9871 4.98188C 10.9871 4.4296 10.5394 3.98188 9.98707 3.98188L 9.98707 4.98188ZM 7.19069 4.98188L 6.48441 4.27395C 6.19793 4.55977 6.11194 4.99007 6.26659 5.36403C 6.42123 5.73799 6.78601 5.98188 7.19069 5.98188L 7.19069 4.98188ZM 2.79637 4.98188L 2.79637 5.98188C 3.20105 5.98188 3.56583 5.73799 3.72047 5.36403C 3.87512 4.99007 3.78913 4.55977 3.50265 4.27395L 2.79637 4.98188ZM 6.09562e-06 4.98188L 6.09562e-06 3.98188C -0.552279 3.98188 -0.999994 4.4296 -0.999994 4.98188L 6.09562e-06 4.98188ZM 0.580346 15.9593C 1.81718 15.0779 3.31374 14.5507 4.99354 14.5507L 4.99354 12.5507C 2.87826 12.5507 0.979213 13.2192 -0.580333 14.3306L 0.580346 15.9593ZM 4.99354 14.5507C 6.67334 14.5507 8.1699 15.0779 9.40673 15.9593L 10.5674 14.3306C 9.00786 13.2192 7.10882 12.5507 4.99354 12.5507L 4.99354 14.5507ZM 10.9871 15.1449L 10.9871 4.98188L 8.98707 4.98188L 8.98707 15.1449L 10.9871 15.1449ZM 9.98707 3.98188L 7.19069 3.98188L 7.19069 5.98188L 9.98707 5.98188L 9.98707 3.98188ZM 7.89697 5.68982C 8.59004 4.99836 8.98966 4.04373 8.98966 2.98913L 6.98966 2.98913C 6.98966 3.52873 6.79005 3.96903 6.48441 4.27395L 7.89697 5.68982ZM 8.98966 2.98913C 8.98966 0.740805 7.24142 -1 4.99354 -1L 4.99354 1C 6.14126 1 6.98966 1.84977 6.98966 2.98913L 8.98966 2.98913ZM 4.99354 -1C 2.74566 -1 0.997419 0.740805 0.997419 2.98913L 2.99742 2.98913C 2.99742 1.84977 3.84582 1 4.99354 1L 4.99354 -1ZM 0.997419 2.98913C 0.997419 4.04372 1.39701 4.99836 2.09009 5.68982L 3.50265 4.27395C 3.19702 3.96904 2.99742 3.52875 2.99742 2.98913L 0.997419 2.98913ZM 2.79637 3.98188L 6.09562e-06 3.98188L 6.09562e-06 5.98188L 2.79637 5.98188L 2.79637 3.98188ZM -0.999994 4.98188L -0.999994 15.1449L 1.00001 15.1449L 1.00001 4.98188L -0.999994 4.98188Z"/>
<path id="path42_stroke" d="M 8.98707 33.3786C 8.98707 33.9309 9.43478 34.3786 9.98707 34.3786C 10.5394 34.3786 10.9871 33.9309 10.9871 33.3786L 8.98707 33.3786ZM 9.98707 3.80088e-07L 10.9871 3.80088e-07C 10.9871 -0.374389 10.7779 -0.717417 10.4451 -0.888915C 10.1123 -1.06041 9.71162 -1.03165 9.40673 -0.814374L 9.98707 3.80088e-07ZM 6.09562e-06 3.80088e-07L 0.580345 -0.814374C 0.275453 -1.03165 -0.125266 -1.06041 -0.458066 -0.888915C -0.790866 -0.717417 -0.999994 -0.374389 -0.999994 3.80088e-07L 6.09562e-06 3.80088e-07ZM 6.09562e-06 33.279L -0.999994 33.279C -0.999994 33.8313 -0.552279 34.279 6.09562e-06 34.279L 6.09562e-06 33.279ZM 9.98707 33.279L 10.9871 33.279C 10.9871 32.7267 10.5394 32.279 9.98707 32.279L 9.98707 33.279ZM 10.9871 33.3786L 10.9871 3.80088e-07L 8.98707 3.80088e-07L 8.98707 33.3786L 10.9871 33.3786ZM 9.40673 -0.814374C 8.1699 0.0670159 6.67334 0.594203 4.99354 0.594203L 4.99354 2.5942C 7.10882 2.5942 9.00786 1.92574 10.5674 0.814375L 9.40673 -0.814374ZM 4.99354 0.594203C 3.31374 0.594203 1.81718 0.0670159 0.580345 -0.814374L -0.580333 0.814375C 0.979213 1.92574 2.87826 2.5942 4.99354 2.5942L 4.99354 0.594203ZM -0.999994 3.80088e-07L -0.999994 33.279L 1.00001 33.279L 1.00001 3.80088e-07L -0.999994 3.80088e-07ZM 6.09562e-06 34.279L 9.98707 34.279L 9.98707 32.279L 6.09562e-06 32.279L 6.09562e-06 34.279ZM 8.98707 33.279L 8.98707 33.3786L 10.9871 33.3786L 10.9871 33.279L 8.98707 33.279Z"/>
<path id="path43_stroke" d="M 16.7783 7.60175e-07L 17.7483 0.24307C 17.8231 -0.0557237 17.7561 -0.37235 17.5666 -0.615195C 17.3771 -0.858039 17.0863 -0.999999 16.7783 -0.999999L 16.7783 7.60175e-07ZM 1.5239e-06 28.1975L -0.999998 28.1975C -0.999998 28.7497 -0.552283 29.1975 1.5239e-06 29.1975L 1.5239e-06 28.1975ZM 5.99224 28.1975L 5.99224 29.1975C 6.54452 29.1975 6.99224 28.7497 6.99224 28.1975L 5.99224 28.1975ZM 17.2776 5.97826L 17.2776 6.97826C 17.604 6.97826 17.9098 6.81902 18.0969 6.55165C 18.284 6.28428 18.3289 5.94243 18.2172 5.63581L 17.2776 5.97826ZM 17.4787 2.29167C 17.4787 1.58951 17.565 0.97437 17.7483 0.24307L 15.8083 -0.243068C 15.592 0.619834 15.4787 1.39962 15.4787 2.29167L 17.4787 2.29167ZM 16.7783 -0.999999L 15.0805 -0.999999L 15.0805 1L 16.7783 1L 16.7783 -0.999999ZM 15.0805 -0.999999C 6.24545 -0.999999 -0.999998 6.11694 -0.999998 15.0453L 1 15.0453C 1 7.23452 7.33696 1 15.0805 1L 15.0805 -0.999999ZM -0.999998 15.0453L -0.999998 28.1975L 1 28.1975L 1 15.0453L -0.999998 15.0453ZM 1.5239e-06 29.1975L 5.99224 29.1975L 5.99224 27.1975L 1.5239e-06 27.1975L 1.5239e-06 29.1975ZM 6.99224 28.1975L 6.99224 15.5435L 4.99224 15.5435L 4.99224 28.1975L 6.99224 28.1975ZM 6.99224 15.5435C 6.99224 10.8172 10.8368 6.97826 15.5798 6.97826L 15.5798 4.97826C 9.73659 4.97826 4.99224 9.7082 4.99224 15.5435L 6.99224 15.5435ZM 15.5798 6.97826L 17.2776 6.97826L 17.2776 4.97826L 15.5798 4.97826L 15.5798 6.97826ZM 18.2172 5.63581C 17.8243 4.55806 17.4787 3.4016 17.4787 2.29167L 15.4787 2.29167C 15.4787 3.77231 15.9319 5.20644 16.3381 6.32071L 18.2172 5.63581Z"/>
<path id="path44_stroke" d="M 13.882 5.97826L 13.882 6.97826C 14.1938 6.97826 14.4877 6.83285 14.6769 6.58502C 14.8661 6.33719 14.9288 6.01531 14.8466 5.71457L 13.882 5.97826ZM 13.5824 7.60175e-07L 14.5746 0.124321C 14.6103 -0.160335 14.522 -0.446598 14.3322 -0.661694C 14.1423 -0.87679 13.8693 -0.999999 13.5824 -0.999999L 13.5824 7.60175e-07ZM 0.599221 7.60175e-07L 0.599221 -0.999999C 0.285321 -0.999999 -0.0103624 -0.852608 -0.199314 -0.601948C -0.388265 -0.351289 -0.448555 -0.0264528 -0.362133 0.275316L 0.599221 7.60175e-07ZM -1.5239e-06 5.97826L -0.877426 5.49855C -1.04682 5.80838 -1.04025 6.18457 -0.860151 6.4883C -0.680049 6.79203 -0.353114 6.97826 -1.5239e-06 6.97826L -1.5239e-06 5.97826ZM 14.8466 5.71457C 14.5683 4.69653 14.3827 3.48999 14.3827 2.29167L 12.3827 2.29167C 12.3827 3.68392 12.5965 5.06796 12.9174 6.24195L 14.8466 5.71457ZM 14.3827 2.29167C 14.3827 1.5712 14.4718 0.944978 14.5746 0.124321L 12.5902 -0.12432C 12.4932 0.649226 12.3827 1.41793 12.3827 2.29167L 14.3827 2.29167ZM 13.5824 -0.999999L 0.599221 -0.999999L 0.599221 1L 13.5824 1L 13.5824 -0.999999ZM -0.362133 0.275316C -0.191892 0.86977 -0.101164 1.57254 -0.101164 2.29167L 1.89884 2.29167C 1.89884 1.4166 1.78982 0.525159 1.56057 -0.275314L -0.362133 0.275316ZM -0.101164 2.29167C -0.101164 3.43923 -0.367671 4.56618 -0.877426 5.49855L 0.877423 6.45798C 1.56612 5.19832 1.89884 3.73469 1.89884 2.29167L -0.101164 2.29167ZM -1.5239e-06 6.97826L 13.882 6.97826L 13.882 4.97826L -1.5239e-06 4.97826L -1.5239e-06 6.97826Z"/>
<path id="path45_stroke" d="M 16.3788 5.97826L 16.3788 6.97826C 16.9311 6.97826 17.3788 6.53055 17.3788 5.97826L 16.3788 5.97826ZM 16.3788 7.60175e-07L 17.3788 7.60175e-07C 17.3788 -0.552284 16.9311 -0.999999 16.3788 -0.999999L 16.3788 7.60175e-07ZM 0.299612 7.60175e-07L 0.299612 -0.999999C 0.00966343 -0.999999 -0.26601 -0.874151 -0.455949 -0.655077C -0.645888 -0.436004 -0.73139 -0.145275 -0.690291 0.141746L 0.299612 7.60175e-07ZM -3.04781e-06 5.97826L -0.964611 5.71457C -1.04682 6.01531 -0.984063 6.33719 -0.79489 6.58502C -0.605717 6.83285 -0.31178 6.97826 -3.04781e-06 6.97826L -3.04781e-06 5.97826ZM 17.3788 5.97826L 17.3788 7.60175e-07L 15.3788 7.60175e-07L 15.3788 5.97826L 17.3788 5.97826ZM 16.3788 -0.999999L 0.299612 -0.999999L 0.299612 1L 16.3788 1L 16.3788 -0.999999ZM -0.690291 0.141746C -0.591426 0.832189 -0.50065 1.57005 -0.50065 2.29167L 1.49935 2.29167C 1.49935 1.41908 1.39039 0.56274 1.28952 -0.141745L -0.690291 0.141746ZM -0.50065 2.29167C -0.50065 3.48999 -0.686314 4.69653 -0.964611 5.71457L 0.964604 6.24195C 1.28553 5.06796 1.49935 3.68392 1.49935 2.29167L -0.50065 2.29167ZM -3.04781e-06 6.97826L 16.3788 6.97826L 16.3788 4.97826L -3.04781e-06 4.97826L -3.04781e-06 6.97826Z"/>
<path id="path46_stroke" d="M 6.09562e-06 7.60175e-07L 6.09562e-06 -0.999999C -0.552279 -0.999999 -0.999994 -0.552284 -0.999994 7.60175e-07L 6.09562e-06 7.60175e-07ZM 15.9793 7.60175e-07L 16.9793 7.60175e-07C 16.9793 -0.552284 16.5316 -0.999999 15.9793 -0.999999L 15.9793 7.60175e-07ZM 15.9793 5.97826L 15.9793 6.97826C 16.5316 6.97826 16.9793 6.53055 16.9793 5.97826L 15.9793 5.97826ZM 6.09562e-06 5.97826L -0.999994 5.97826C -0.999994 6.53055 -0.552279 6.97826 6.09562e-06 6.97826L 6.09562e-06 5.97826ZM 6.09562e-06 1L 15.9793 1L 15.9793 -0.999999L 6.09562e-06 -0.999999L 6.09562e-06 1ZM 14.9793 7.60175e-07L 14.9793 5.97826L 16.9793 5.97826L 16.9793 7.60175e-07L 14.9793 7.60175e-07ZM 15.9793 4.97826L 6.09562e-06 4.97826L 6.09562e-06 6.97826L 15.9793 6.97826L 15.9793 4.97826ZM 1.00001 5.97826L 1.00001 7.60175e-07L -0.999994 7.60175e-07L -0.999994 5.97826L 1.00001 5.97826Z"/>
<path id="path47_stroke" d="M 12.7834 7.60175e-07L 13.7535 0.24307C 13.8283 -0.0557237 13.7613 -0.37235 13.5718 -0.615195C 13.3823 -0.858039 13.0915 -0.999999 12.7834 -0.999999L 12.7834 7.60175e-07ZM -3.04781e-06 7.60175e-07L -3.04781e-06 -0.999999C -0.552288 -0.999999 -1 -0.552284 -1 7.60175e-07L -3.04781e-06 7.60175e-07ZM -3.04781e-06 5.97826L -1 5.97826C -1 6.53055 -0.552288 6.97826 -3.04781e-06 6.97826L -3.04781e-06 5.97826ZM 13.2828 5.97826L 13.2828 6.97826C 13.6229 6.97826 13.9398 6.80535 14.1238 6.51928C 14.3078 6.2332 14.3338 5.8732 14.1928 5.56366L 13.2828 5.97826ZM 13.4838 2.29167C 13.4838 1.58952 13.5702 0.974377 13.7535 0.24307L 11.8134 -0.243068C 11.5972 0.619827 11.4838 1.39961 11.4838 2.29167L 13.4838 2.29167ZM 12.7834 -0.999999L -3.04781e-06 -0.999999L -3.04781e-06 1L 12.7834 1L 12.7834 -0.999999ZM -1 7.60175e-07L -1 5.97826L 0.999997 5.97826L 0.999997 7.60175e-07L -1 7.60175e-07ZM -3.04781e-06 6.97826L 13.2828 6.97826L 13.2828 4.97826L -3.04781e-06 4.97826L -3.04781e-06 6.97826ZM 14.1928 5.56366C 13.7509 4.5937 13.4838 3.43946 13.4838 2.29167L 11.4838 2.29167C 11.4838 3.73446 11.816 5.17079 12.3728 6.39287L 14.1928 5.56366Z"/>
<path id="path48_stroke" d="M 16.8781 5.97826L 16.8781 6.97826C 17.4304 6.97826 17.8781 6.53055 17.8781 5.97826L 16.8781 5.97826ZM 16.8781 7.60175e-07L 17.8781 7.60175e-07C 17.8781 -0.552284 17.4304 -0.999999 16.8781 -0.999999L 16.8781 7.60175e-07ZM 0.599224 7.60175e-07L 0.599224 -0.999999C 0.285325 -0.999999 -0.0103593 -0.852608 -0.199311 -0.601948C -0.388262 -0.351289 -0.448551 -0.0264528 -0.36213 0.275316L 0.599224 7.60175e-07ZM -6.09562e-06 5.97826L -0.877431 5.49855C -1.04682 5.80838 -1.04026 6.18457 -0.860156 6.4883C -0.680054 6.79203 -0.353118 6.97826 -6.09562e-06 6.97826L -6.09562e-06 5.97826ZM 17.8781 5.97826L 17.8781 7.60175e-07L 15.8781 7.60175e-07L 15.8781 5.97826L 17.8781 5.97826ZM 16.8781 -0.999999L 0.599224 -0.999999L 0.599224 1L 16.8781 1L 16.8781 -0.999999ZM -0.36213 0.275316C -0.191889 0.86977 -0.101161 1.57254 -0.101161 2.29167L 1.89884 2.29167C 1.89884 1.4166 1.78982 0.525159 1.56058 -0.275314L -0.36213 0.275316ZM -0.101161 2.29167C -0.101161 3.43922 -0.367674 4.56617 -0.877431 5.49855L 0.877419 6.45798C 1.56611 5.19832 1.89884 3.73469 1.89884 2.29167L -0.101161 2.29167ZM -6.09562e-06 6.97826L 16.8781 6.97826L 16.8781 4.97826L -6.09562e-06 4.97826L -6.09562e-06 6.97826Z"/>
<path id="path49_stroke" d="M 3.04781e-06 7.60175e-07L 3.04781e-06 -0.999999C -0.552282 -0.999999 -0.999997 -0.552284 -0.999997 7.60175e-07L 3.04781e-06 7.60175e-07ZM 20.6732 7.60175e-07L 21.6732 7.60175e-07C 21.6732 -0.552284 21.2255 -0.999999 20.6732 -0.999999L 20.6732 7.60175e-07ZM 20.6732 5.97826L 20.6732 6.97826C 21.2255 6.97826 21.6732 6.53055 21.6732 5.97826L 20.6732 5.97826ZM 3.04781e-06 5.97826L -0.999997 5.97826C -0.999997 6.53055 -0.552282 6.97826 3.04781e-06 6.97826L 3.04781e-06 5.97826ZM 3.04781e-06 1L 20.6732 1L 20.6732 -0.999999L 3.04781e-06 -0.999999L 3.04781e-06 1ZM 19.6732 7.60175e-07L 19.6732 5.97826L 21.6732 5.97826L 21.6732 7.60175e-07L 19.6732 7.60175e-07ZM 20.6732 4.97826L 3.04781e-06 4.97826L 3.04781e-06 6.97826L 20.6732 6.97826L 20.6732 4.97826ZM 1 5.97826L 1 7.60175e-07L -0.999997 7.60175e-07L -0.999997 5.97826L 1 5.97826Z"/>
<path id="path50_stroke" d="M 18.1765 7.60175e-07L 18.9951 0.574362C 19.2093 0.268964 19.2358 -0.130321 19.0637 -0.461323C 18.8916 -0.792325 18.5495 -0.999999 18.1765 -0.999999L 18.1765 7.60175e-07ZM -1.21912e-05 7.60175e-07L -1.21912e-05 -0.999999C -0.552297 -0.999999 -1.00001 -0.552284 -1.00001 7.60175e-07L -1.21912e-05 7.60175e-07ZM -1.21912e-05 5.97826L -1.00001 5.97826C -1.00001 6.53055 -0.552297 6.97826 -1.21912e-05 6.97826L -1.21912e-05 5.97826ZM 17.8769 5.97826L 17.8769 6.97826C 18.2558 6.97826 18.6022 6.76403 18.7715 6.42497C 18.9408 6.08591 18.9039 5.68029 18.6762 5.37736L 17.8769 5.97826ZM 18.0779 3.28804C 18.0779 2.32939 18.3946 1.4302 18.9951 0.574362L 17.3579 -0.57436C 16.5602 0.562555 16.0779 1.85539 16.0779 3.28804L 18.0779 3.28804ZM 18.1765 -0.999999L -1.21912e-05 -0.999999L -1.21912e-05 1L 18.1765 1L 18.1765 -0.999999ZM -1.00001 7.60175e-07L -1.00001 5.97826L 0.999988 5.97826L 0.999988 7.60175e-07L -1.00001 7.60175e-07ZM -1.21912e-05 6.97826L 17.8769 6.97826L 17.8769 4.97826L -1.21912e-05 4.97826L -1.21912e-05 6.97826ZM 18.6762 5.37736C 18.2468 4.80619 18.0779 4.1444 18.0779 3.28804L 16.0779 3.28804C 16.0779 4.42444 16.3085 5.55613 17.0775 6.57916L 18.6762 5.37736Z"/>
<path id="path51_stroke" d="M 15.8794 5.97826L 15.8794 6.97826C 16.2841 6.97826 16.6489 6.73437 16.8035 6.36041C 16.9582 5.98645 16.8722 5.55615 16.5857 5.27033L 15.8794 5.97826ZM 13.1829 3.28804L 12.4767 2.58011C 12.2886 2.76772 12.1829 3.02242 12.1829 3.28804C 12.1829 3.55366 12.2886 3.80837 12.4767 3.99597L 13.1829 3.28804ZM 16.4787 7.60175e-07L 17.1849 0.707932C 17.4714 0.422117 17.5574 -0.00818334 17.4028 -0.382144C 17.2481 -0.756105 16.8833 -0.999999 16.4787 -0.999999L 16.4787 7.60175e-07ZM 0 7.60175e-07L 0 -0.999999C -0.373073 -0.999999 -0.715125 -0.792325 -0.887232 -0.461323C -1.05934 -0.130321 -1.03288 0.268964 -0.818602 0.574362L 0 7.60175e-07ZM 0.399476 5.97826L -0.494532 5.53021C -0.649891 5.8402 -0.633576 6.20855 -0.45142 6.50359C -0.269264 6.79864 0.0527325 6.97826 0.399476 6.97826L 0.399476 5.97826ZM 16.5857 5.27033L 13.8892 2.58011L 12.4767 3.99597L 15.1731 6.68619L 16.5857 5.27033ZM 13.8892 3.99597L 17.1849 0.707932L 15.7724 -0.70793L 12.4767 2.58011L 13.8892 3.99597ZM 16.4787 -0.999999L 0 -0.999999L 0 1L 16.4787 1L 16.4787 -0.999999ZM -0.818602 0.574362C -0.218115 1.4302 0.0985831 2.32939 0.0985831 3.28804L 2.09858 3.28804C 2.09858 1.85539 1.6163 0.562555 0.818602 -0.57436L -0.818602 0.574362ZM 0.0985831 3.28804C 0.0985831 4.07954 -0.138651 4.82011 -0.494532 5.53021L 1.29349 6.42631C 1.73657 5.54221 2.09858 4.4893 2.09858 3.28804L 0.0985831 3.28804ZM 0.399476 6.97826L 15.8794 6.97826L 15.8794 4.97826L 0.399476 4.97826L 0.399476 6.97826Z"/>
<path id="path52_stroke" d="M 6.09562e-06 7.60175e-07L 6.09562e-06 -0.999999C -0.404668 -0.999999 -0.769452 -0.756105 -0.924096 -0.382144C -1.07874 -0.00818335 -0.992757 0.422117 -0.706276 0.707932L 6.09562e-06 7.60175e-07ZM 3.29572 3.28804L 4.00201 3.99597C 4.19005 3.80837 4.29573 3.55366 4.29572 3.28804C 4.29572 3.02242 4.19005 2.76772 4.00201 2.58011L 3.29572 3.28804ZM 0.599236 5.97826L -0.107047 5.27033C -0.393528 5.55615 -0.479511 5.98645 -0.324866 6.36041C -0.170222 6.73437 0.194562 6.97826 0.599236 6.97826L 0.599236 5.97826ZM 13.4825 28.1975L 12.4825 28.1975C 12.4825 28.7497 12.9303 29.1975 13.4825 29.1975L 13.4825 28.1975ZM 19.4748 28.1975L 19.4748 29.1975C 20.0271 29.1975 20.4748 28.7497 20.4748 28.1975L 19.4748 28.1975ZM 19.4748 15.0453L 20.4749 15.0453L 20.4747 15.0332L 19.4748 15.0453ZM 4.29443 -0.999999L 6.09562e-06 -0.999999L 6.09562e-06 1L 4.29443 1L 4.29443 -0.999999ZM -0.706276 0.707932L 2.58944 3.99597L 4.00201 2.58011L 0.706288 -0.70793L -0.706276 0.707932ZM 2.58944 2.58011L -0.107047 5.27033L 1.30552 6.68619L 4.00201 3.99597L 2.58944 2.58011ZM 0.599236 6.97826L 3.89495 6.97826L 3.89495 4.97826L 0.599236 4.97826L 0.599236 6.97826ZM 3.89495 6.97826C 8.63802 6.97826 12.4825 10.8172 12.4825 15.5435L 14.4825 15.5435C 14.4825 9.7082 9.73818 4.97826 3.89495 4.97826L 3.89495 6.97826ZM 12.4825 15.5435L 12.4825 28.1975L 14.4825 28.1975L 14.4825 15.5435L 12.4825 15.5435ZM 13.4825 29.1975L 19.4748 29.1975L 19.4748 27.1975L 13.4825 27.1975L 13.4825 29.1975ZM 20.4748 28.1975L 20.4748 15.0453L 18.4748 15.0453L 18.4748 28.1975L 20.4748 28.1975ZM 20.4747 15.0332C 20.3683 6.2249 13.2402 -0.999999 4.29443 -0.999999L 4.29443 1C 12.1269 1 18.3815 7.32583 18.4749 15.0574L 20.4747 15.0332Z"/>
<path id="path53_stroke" d="M 17.9767 7.60175e-07L 18.9721 0.0956312C 18.9991 -0.184928 18.9064 -0.463835 18.7169 -0.672446C 18.5273 -0.881057 18.2586 -0.999999 17.9767 -0.999999L 17.9767 7.60175e-07ZM 0 7.60175e-07L 0 -0.999999C -0.281851 -0.999999 -0.550615 -0.881057 -0.740145 -0.672446C -0.929675 -0.463835 -1.02237 -0.184928 -0.995417 0.0956312L 0 7.60175e-07ZM 2.99612 31.1866L 2.0007 31.2822C 2.04997 31.7951 2.48088 32.1866 2.99612 32.1866L 2.99612 31.1866ZM 14.9806 31.1866L 14.9806 32.1866C 15.4958 32.1866 15.9267 31.7951 15.976 31.2822L 14.9806 31.1866ZM 17.9767 -0.999999L 0 -0.999999L 0 1L 17.9767 1L 17.9767 -0.999999ZM -0.995417 0.0956312L 2.0007 31.2822L 3.99154 31.091L 0.995417 -0.0956297L -0.995417 0.0956312ZM 2.99612 32.1866L 14.9806 32.1866L 14.9806 30.1866L 2.99612 30.1866L 2.99612 32.1866ZM 15.976 31.2822L 18.9721 0.0956312L 16.9813 -0.0956297L 13.9852 31.091L 15.976 31.2822Z"/>
<path id="path54_stroke" d="M -3.80976e-07 -1C -0.552285 -1 -1 -0.552285 -1 0C -1 0.552285 -0.552285 1 -3.80976e-07 1L -3.80976e-07 -1ZM 13.1829 1C 13.7352 1 14.1829 0.552285 14.1829 0C 14.1829 -0.552285 13.7352 -1 13.1829 -1L 13.1829 1ZM -3.80976e-07 1L 13.1829 1L 13.1829 -1L -3.80976e-07 -1L -3.80976e-07 1Z"/>
</defs>
</svg>
