<svg width="18" height="18" viewBox="0 0 18 18" version="1.1" xmlns="http://www.w3.org/2000/svg" xmlns:xlink="http://www.w3.org/1999/xlink">
<title>Icon</title>
<desc>Created using Figma</desc>
<g id="Canvas" transform="translate(-17423 1303)">
<g id="Icon">
<g id="Rectangle 25">
<mask id="mask0_outline_ins">
<use xlink:href="#path0_fill" fill="white" transform="translate(17423 -1302)"/>
</mask>
<g mask="url(#mask0_outline_ins)">
<use xlink:href="#path1_stroke_2x" transform="translate(17423 -1302)" fill="#898989"/>
</g>
</g>
<g id="Rectangle 26">
<use xlink:href="#path2_fill" transform="translate(17425 -1303)" fill="#898989"/>
</g>
<g id="Rectangle 26">
<use xlink:href="#path2_fill" transform="translate(17438 -1303)" fill="#898989"/>
</g>
<g id="Rectangle 27">
<use xlink:href="#path3_fill" transform="translate(17423 -1299)" fill="#898989"/>
</g>
<g id="Rectangle 27">
<use xlink:href="#path4_fill" transform="translate(17427 -1295)" fill="#898989"/>
</g>
<g id="Rectangle 27">
<use xlink:href="#path5_fill" transform="translate(17429 -1292)" fill="#898989"/>
</g>
</g>
</g>
<defs>
<path id="path0_fill" d="M 0 0L 18 0L 18 17L 0 17L 0 0Z"/>
<path id="path1_stroke_2x" d="M 0 0L 0 -1L -1 -1L -1 0L 0 0ZM 18 0L 19 0L 19 -1L 18 -1L 18 0ZM 18 17L 18 18L 19 18L 19 17L 18 17ZM 0 17L -1 17L -1 18L 0 18L 0 17ZM 0 1L 18 1L 18 -1L 0 -1L 0 1ZM 17 0L 17 17L 19 17L 19 0L 17 0ZM 18 16L 0 16L 0 18L 18 18L 18 16ZM 1 17L 1 0L -1 0L -1 17L 1 17Z"/>
<path id="path2_fill" d="M 0 0L 1 0L 1 3L 0 3L 0 0Z"/>
<path id="path3_fill" d="M 0 0L 18 0L 18 1L 0 1L 0 0Z"/>
<path id="path4_fill" d="M 0 0L 10 0L 10 1L 0 1L 0 0Z"/>
<path id="path5_fill" d="M 0 0L 6 0L 6 1L 0 1L 0 0Z"/>
</defs>
</svg>
