<svg width="84" height="50" viewBox="0 0 84 50" version="1.1" xmlns="http://www.w3.org/2000/svg" xmlns:xlink="http://www.w3.org/1999/xlink">
<title>Union</title>
<desc>Created using Figma</desc>
<g id="Canvas" transform="translate(-24101 5712)">
<g id="Union">
<use xlink:href="#path0_fill" transform="translate(24101 -5712)" fill="#1E91EA"/>
</g>
</g>
<defs>
<path id="path0_fill" fill-rule="evenodd" d="M 3.00781 2.0293L 61.1543 2.0293C 61.709 2.0293 62.1582 2.48291 62.1582 3.04297L 62.1582 5.07227L 2.00586 5.07227L 2.00586 3.04297C 2.00586 2.48291 2.45312 2.0293 3.00781 2.0293ZM 62.1582 13.5142L 62.1582 7.10156L 2.00586 7.10156L 2.00586 41.5918C 2.00586 42.1523 2.45312 42.6064 3.00781 42.6064L 61.1543 42.6064C 61.709 42.6064 62.1582 42.1523 62.1582 41.5918L 62.1582 37.3604C 58.3281 38.1567 54.1895 37.0518 51.2188 34.0454C 46.5195 29.2915 46.5195 21.5835 51.2188 16.8296C 54.1914 13.8232 58.3281 12.7183 62.1582 13.5142ZM 64.1621 14.1191C 65.6445 14.7129 67.0332 15.6162 68.2324 16.8296C 72.6914 21.3418 72.9199 28.5156 68.9102 33.2988L 71.1875 35.6025C 72.3066 35.0625 73.6875 35.2607 74.6113 36.1978L 83.1191 44.8047C 84.293 45.9937 84.293 47.9209 83.1191 49.1089C 81.9434 50.2974 80.0391 50.2974 78.8652 49.1089L 70.3574 40.501C 69.4316 39.564 69.2363 38.1685 69.7715 37.0371L 67.4941 34.7329C 66.4766 35.606 65.3496 36.2798 64.1621 36.7554L 64.1621 41.5918C 64.1621 43.2725 62.8164 44.6353 61.1543 44.6353L 3.00781 44.6353C 1.34766 44.6353 0 43.2725 0 41.5918L 0 3.04297C 0 1.36279 1.34766 0 3.00781 0L 61.1543 0C 62.8164 0 64.1621 1.36279 64.1621 3.04297L 64.1621 14.1191ZM 66.8145 18.2646C 70.7305 22.2256 70.7305 28.6494 66.8145 32.6104C 62.9004 36.5723 56.5508 36.5723 52.6367 32.6104C 48.7207 28.6494 48.7207 22.2256 52.6367 18.2646C 56.5508 14.3027 62.9004 14.3027 66.8145 18.2646ZM 73.1934 37.6318L 81.7012 46.2397C 82.0938 46.6357 82.0938 47.2778 81.7012 47.6743C 81.3105 48.0703 80.6758 48.0703 80.2832 47.6743L 71.7754 39.0664C 71.3848 38.6704 71.3848 38.0278 71.7754 37.6318C 72.168 37.2358 72.8027 37.2358 73.1934 37.6318ZM 64.1641 32.5083C 63.5176 32.8306 62.8457 33.0776 62.1582 33.251L 62.1582 17.6235C 62.8457 17.7969 63.5176 18.0439 64.1641 18.3667L 64.1641 32.5083ZM 31.5781 28.5991C 34.5762 28.5991 35.8594 25.7261 35.8594 22.9995C 35.8594 20.2725 34.5762 17.416 31.5781 17.416C 28.5781 17.416 27.2949 20.2725 27.2949 22.9995C 27.2949 25.7261 28.5781 28.5991 31.5781 28.5991ZM 31.5781 26.9111C 29.8281 26.9111 29.2031 25.061 29.2031 22.9995C 29.2031 20.938 29.8281 19.104 31.5781 19.104C 33.3262 19.104 33.9512 20.938 33.9512 22.9995C 33.9512 25.061 33.3262 26.9111 31.5781 26.9111ZM 24.7598 28.4043L 24.7598 25.9536L 26.1875 25.9536L 26.1875 24.2817L 24.7598 24.2817L 24.7598 17.5781L 22.1758 17.5781L 17.7812 24.4277L 17.7812 25.9536L 22.8828 25.9536L 22.8828 28.4043L 24.7598 28.4043ZM 22.8828 24.2817L 19.625 24.2817L 22.8828 19.2827L 22.8828 24.2817ZM 43.9473 25.9536L 43.9473 28.4043L 42.0723 28.4043L 42.0723 25.9536L 36.9707 25.9536L 36.9707 24.4277L 41.3652 17.5781L 43.9473 17.5781L 43.9473 24.2817L 45.375 24.2817L 45.375 25.9536L 43.9473 25.9536ZM 38.8145 24.2817L 42.0723 24.2817L 42.0723 19.2827L 38.8145 24.2817Z"/>
</defs>
</svg>
