<svg xmlns="http://www.w3.org/2000/svg" width="141" height="36" viewBox="0 0 141 36">
  <g fill="#FFFFFF" fill-rule="evenodd">
    <g transform="translate(31.97 30.273)">
      <path d="M1.13636163 1.29436364L1.13636163 4.30772727 1.99547791 4.30772727C2.90050116 4.30772727 3.51040814 3.69818182 3.51040814 2.81454545L3.51040814 2.80063636C3.51040814 1.917 2.90050116 1.29436364 1.99547791 1.29436364L1.13636163 1.29436364zM.110012791.364090909L1.99547791.364090909C3.53172209.364090909 4.59086163 1.41545455 4.59086163 2.78754545L4.59086163 2.80063636C4.59086163 4.17354545 3.53172209 5.238 1.99547791 5.238L.110012791 5.238.110012791.364090909zM8.91218372 2.74058182C9.44831163 2.74058182 9.77048023 2.45258182 9.77048023 2.02467273L9.77048023 2.01076364C9.77048023 1.54276364 9.43519535 1.29403636 8.8925093 1.29403636L7.78500349 1.29403636 7.78500349 2.74058182 8.91218372 2.74058182zM6.75865465.364581818L8.97858488.364581818C9.59586977.364581818 10.0787128.538036364 10.4008814.859581818 10.6697651 1.12712727 10.8099453 1.50921818 10.8099453 1.95758182L10.8099453 1.97067273C10.8099453 2.76103636 10.3738291 3.25603636 9.74342791 3.47694545L10.9640616 5.23767273 9.75654419 5.23767273 8.67691047 3.65121818 7.78500349 3.65121818 7.78500349 5.23767273 6.75865465 5.23767273 6.75865465.364581818z"/>
      <polygon points="13.045 5.238 14.079 5.238 14.079 .364 13.045 .364"/>
      <polygon points="16.513 .364 17.459 .364 19.813 3.437 19.813 .364 20.834 .364 20.834 5.238 19.954 5.238 17.526 2.065 17.526 5.238 16.513 5.238"/>
      <polygon points="23.222 .364 24.248 .364 24.248 2.56 26.287 .364 27.555 .364 25.55 2.439 27.643 5.238 26.401 5.238 24.852 3.142 24.248 3.765 24.248 5.238 23.222 5.238"/>
      <path d="M32.4531994 4.52839091L33.0639262 3.79857273C33.5066006 4.16675455 33.9697692 4.40075455 34.5395076 4.40075455 34.996118 4.40075455 35.2772983 4.20684545 35.2772983 3.90575455L35.2772983 3.89184545C35.2772983 3.60466364 35.1026878 3.45657273 34.2714436 3.24957273 33.2721471 3.00166364 32.6474843 2.72102727 32.6474843 1.76375455L32.6474843 1.74984545C32.6474843.880118182 33.3582227.297572727 34.350961.297572727 35.0625192.297572727 35.6593099.518481818 36.156089.913663636L35.6125831 1.69011818C35.183025 1.38166364 34.7542866 1.20166364 34.3312866 1.20166364 33.9025483 1.20166364 33.6738331 1.40866364 33.6738331 1.65657273L33.6738331 1.66966364C33.6738331 2.00511818 33.8886122 2.11802727 34.7477285 2.33893636 35.747025 2.59339091 36.3036471 2.95502727 36.3036471 3.79202727L36.3036471 3.80511818C36.3036471 4.76320909 35.5658564 5.30484545 34.5198331 5.30484545 33.7746645 5.30484545 33.0368738 5.05039091 32.4531994 4.52839091M42.328036 2.81446364L42.328036 2.80055455C42.328036 1.94391818 41.6968151 1.22800909 40.8114663 1.22800909 39.9261174 1.22800909 39.3088326 1.93082727 39.3088326 2.78746364L39.3088326 2.80055455C39.3088326 3.65800909 39.9400535 4.37391818 40.8254023 4.37391818 41.7107512 4.37391818 42.328036 3.6711 42.328036 2.81446364M38.2291988 2.81446364L38.2291988 2.80055455C38.2291988 1.42191818 39.3227686.283827273 40.8254023.283827273 42.328036.283827273 43.4076698 1.40146364 43.4076698 2.78746364L43.4076698 2.80055455C43.4076698 4.18000909 42.3141 5.3181 40.8114663 5.3181 39.3088326 5.3181 38.2291988 4.20046364 38.2291988 2.81446364M45.3542076 2.81446364L45.3542076 2.80055455C45.3542076 1.41537273 46.4002308.283827273 47.8963064.283827273 48.8152657.283827273 49.3653297.584918182 49.8211203 1.03328182L49.1636669 1.7901C48.7816552 1.44237273 48.3930855 1.22800909 47.8897483 1.22800909 47.044568 1.22800909 46.4338413 1.93082727 46.4338413 2.78746364L46.4338413 2.80055455C46.4338413 3.65800909 47.0314517 4.37391818 47.8897483 4.37391818 48.4594866 4.37391818 48.8087076 4.14646364 49.1972773 3.79137273L49.8547308 4.4541C49.3522134 4.98346364 48.7947715 5.3181 47.8561378 5.3181 46.420725 5.3181 45.3542076 4.21355455 45.3542076 2.81446364"/>
      <polygon points="51.969 5.238 53.002 5.238 53.002 .364 51.969 .364"/>
      <path d="M58.2687419,3.21602727 L57.5834163,1.56248182 L56.8931721,3.21602727 L58.2687419,3.21602727 Z M57.1218872,0.3303 L58.0736372,0.3303 L60.1730616,5.23775455 L59.0934279,5.23775455 L58.6368174,4.12666364 L56.5242767,4.12666364 L56.0676663,5.23775455 L55.0150849,5.23775455 L57.1218872,0.3303 Z"/>
      <polygon points="62.147 .364 63.172 .364 63.172 4.301 65.634 4.301 65.634 5.238 62.147 5.238"/>
      <polygon points="67.654 .364 68.681 .364 68.681 4.301 71.142 4.301 71.142 5.238 67.654 5.238"/>
      <polygon points="73.639 3.317 71.753 .365 72.961 .365 74.162 2.359 75.389 .365 76.563 .365 74.671 3.296 74.671 5.238 73.639 5.238"/>
    </g>
    <path d="M.000409883721 15.9093818L.000409883721 1.34329091C.000409883721 1.21483636.104520349 1.11010909.234043605 1.11010909L4.54847965 1.11010909C4.67718314 1.11010909 4.78211337 1.21483636 4.78211337 1.34329091L4.78211337 15.6352909C4.78211337 19.0127455 6.2519564 20.3095636 9.429375 20.3095636 12.5731831 20.3095636 14.0077762 19.0127455 14.0077762 15.6352909L14.0077762 1.34329091C14.0077762 1.21483636 14.1127064 1.11010909 14.2414099 1.11010909L18.5558459 1.11010909C18.6853692 1.11010909 18.7902994 1.21483636 18.7902994 1.34329091L18.7902994 15.9093818C18.7902994 21.7741091 14.7242529 24.6025636 9.429375 24.6025636 4.06563663 24.6025636.000409883721 21.7741091.000409883721 15.9093818M22.2934116.864163636L36.46965 14.1547091 36.4548942 1.34361818C36.4548942 1.21516364 36.5598244 1.10961818 36.6893477 1.10961818L40.6963709 1.10961818C40.8250744 1.10961818 40.9300047 1.21434545 40.9300047 1.34361818L40.9300047 24.3386182C40.9300047 24.5709818 40.6529233 24.6912545 40.4824116 24.5325273L26.3061733 11.2616182 26.306993 24.0637091C26.306993 24.1929818 26.2028826 24.2977091 26.0733593 24.2977091L22.0655163 24.2977091C21.935993 24.2977091 21.8318826 24.1929818 21.8318826 24.0637091L21.8458186 1.05725455C21.8458186.824890909 22.1237198.705436364 22.2934116.864163636M50.1863267 5.30582727L43.7921407 5.30582727C43.6626174 5.30582727 43.5576872 5.2011 43.5576872 5.07182727L43.5576872 1.34337273C43.5576872 1.21491818 43.6626174 1.11019091 43.7921407 1.11019091L61.363036 1.11019091C61.4925593 1.11019091 61.5974895 1.21491818 61.5974895 1.34337273L61.5974895 5.07182727C61.5974895 5.2011 61.4925593 5.30582727 61.363036 5.30582727L54.9696698 5.30582727 54.9696698 24.0642818C54.9696698 24.1927364 54.8647395 24.2974636 54.736036 24.2974636L50.4199605 24.2974636C50.291257 24.2974636 50.1863267 24.1927364 50.1863267 24.0642818L50.1863267 5.30582727zM69.2771529 9.75027273L66.1751529 17.6825455 72.2914378 17.6825455 69.2771529 9.75027273zM69.5247227.992454545L79.9628215 23.9678182C80.0333215 24.1224545 79.9201936 24.2975455 79.749682 24.2975455L75.2475192 24.2975455C75.1532459 24.2975455 75.0679901 24.2410909 75.0327401 24.1535455L73.9965541 21.6728182 64.5684087 21.6728182 63.534682 24.1535455C63.4977924 24.2410909 63.4133564 24.2975455 63.3182634 24.2975455L59.2210657 24.2975455C59.0521936 24.2975455 58.9398855 24.1249091 59.0071064 23.9710909L69.0386006.996545455C69.1304145.785454545 69.4296297.783818182 69.5247227.992454545L69.5247227.992454545zM88.6545698 14.8195636C92.5492849 14.8195636 94.2552209 13.2511091 94.2552209 10.0790182 94.2552209 6.87338182 92.4804244 5.30574545 88.6545698 5.30574545L87.148657 5.30574545 87.148657 14.8195636 88.6545698 14.8195636zM82.3669535 1.34329091C82.3669535 1.21483636 82.471064 1.11010909 82.6005872 1.11010909L88.7898314 1.11010909C95.2799302 1.11010909 99.1754651 4.48838182 99.1754651 10.0790182 99.1754651 15.6696545 95.2471395 19.0127455 88.7898314 19.0127455L87.148657 19.0127455 87.148657 24.0642C87.148657 24.1934727 87.0445465 24.2973818 86.9150233 24.2973818L82.6005872 24.2973818C82.471064 24.2973818 82.3669535 24.1934727 82.3669535 24.0642L82.3669535 1.34329091zM108.293738 14.8195636C112.190093 14.8195636 113.900128 13.2511091 113.900128 10.0790182 113.900128 6.87338182 112.121233 5.30574545 108.293738 5.30574545L106.792744 5.30574545 106.792744 14.8195636 108.293738 14.8195636zM102.011041 1.34329091C102.011041 1.21483636 102.115971 1.11010909 102.244674 1.11010909L108.433099 1.11010909C114.925657 1.11010909 118.818733 4.48838182 118.818733 10.0790182 118.818733 15.6696545 114.887948 19.0127455 108.433099 19.0127455L106.792744 19.0127455 106.792744 24.0642C106.792744 24.1934727 106.687814 24.2973818 106.55911 24.2973818L102.244674 24.2973818C102.115971 24.2973818 102.011041 24.1934727 102.011041 24.0642L102.011041 1.34329091zM128.145063 20.1042C133.30304 20.1042 135.660691 17.0343818 135.660691 12.7053818 135.660691 8.37392727 133.30304 5.30574545 128.145063 5.30574545L126.026784 5.30574545 126.026784 20.1042 128.145063 20.1042zM121.24426 1.34329091C121.24426 1.21483636 121.349191 1.11010909 121.477894 1.11010909L128.382795 1.11010909C135.525429 1.11010909 140.614545 5.85147273 140.614545 12.7053818 140.614545 19.5584727 135.559859 24.2973818 128.382795 24.2973818L121.477894 24.2973818C121.349191 24.2973818 121.24426 24.1934727 121.24426 24.0642L121.24426 1.34329091z"/>
  </g>
</svg>
