<?xml version="1.0" encoding="UTF-8" standalone="no"?>
<svg width="40px" height="40px" viewBox="0 0 40 40" version="1.1" xmlns="http://www.w3.org/2000/svg" xmlns:xlink="http://www.w3.org/1999/xlink">
    <!-- Generator: Sketch 3.8.3 (29802) - http://www.bohemiancoding.com/sketch -->
    <title>Group Copy</title>
    <desc>Created with Sketch.</desc>
    <defs>
        <rect id="path-1" x="20" y="13" width="2" height="10"></rect>
        <mask id="mask-2" maskContentUnits="userSpaceOnUse" maskUnits="objectBoundingBox" x="0" y="0" width="2" height="10" fill="white">
            <use xlink:href="#path-1"></use>
        </mask>
        <rect id="path-3" x="9.75304833" y="-2.74695167" width="2" height="28"></rect>
        <mask id="mask-4" maskContentUnits="userSpaceOnUse" maskUnits="objectBoundingBox" x="0" y="0" width="2" height="28" fill="white">
            <use xlink:href="#path-3"></use>
        </mask>
        <rect id="path-5" x="12" y="21" width="10" height="2"></rect>
        <mask id="mask-6" maskContentUnits="userSpaceOnUse" maskUnits="objectBoundingBox" x="0" y="0" width="10" height="2" fill="white">
            <use xlink:href="#path-5"></use>
        </mask>
    </defs>
    <g id="Page-1" stroke="none" stroke-width="1" fill="none" fill-rule="evenodd">
        <g id="Group-Copy" fill="#979797">
            <path d="M18.9984194,12 L36.0031611,12 C38.2105543,12 40,13.7941203 40,15.9968389 L40,36.0031611 C40,38.2105543 38.2058797,40 36.0031611,40 L15.9968389,40 C13.7894457,40 12,38.2058797 12,36.0031611 L12,18.9984194 L12,22 L14,22 L14,35.0089096 C14,36.6582294 15.3391568,38 16.9910904,38 L35.0089096,38 C36.6582294,38 38,36.6608432 38,35.0089096 L38,16.9910904 C38,15.3417706 36.6608432,14 35.0089096,14 L22,14 L22,12 L18.9984194,12 Z" id="Combined-Shape"></path>
            <path d="M28,16.0015806 L28,3.99683887 C28,1.79412025 26.2105543,0 24.0031611,0 L3.99683887,0 C1.79412025,0 0,1.78944571 0,3.99683887 L0,24.0031611 C0,26.2058797 1.78944571,28 3.99683887,28 L16.0015806,28 L8,28 L8,26 L4.99109042,26 C3.33915679,26 2,24.6582294 2,23.0089096 L2,4.99109042 C2,3.33915679 3.34177063,2 4.99109042,2 L23.0089096,2 C24.6608432,2 26,3.34177063 26,4.99109042 L26,8 L28,8 L28,16.0015806 Z" id="Combined-Shape"></path>
            <g id="Group-3" transform="translate(10.000000, 9.000000)" stroke="#979797" stroke-width="2">
                <use id="Rectangle-10" mask="url(#mask-2)" xlink:href="#path-1"></use>
                <use id="Rectangle-10" mask="url(#mask-4)" transform="translate(10.753048, 11.253048) rotate(-45.000000) translate(-10.753048, -11.253048) " xlink:href="#path-3"></use>
                <use id="Rectangle-11" mask="url(#mask-6)" xlink:href="#path-5"></use>
            </g>
        </g>
    </g>
</svg>