<?xml version="1.0" encoding="UTF-8" standalone="no"?>
<svg width="100px" height="24px" viewBox="0 0 100 24" version="1.1" xmlns="http://www.w3.org/2000/svg" xmlns:xlink="http://www.w3.org/1999/xlink" xmlns:sketch="http://www.bohemiancoding.com/sketch/ns">
    <!-- Generator: sketchtool 3.4 (375) - http://www.bohemiancoding.com/sketch -->
    <title>untappd-logo</title>
    <desc>Created with sketchtool.</desc>
    <defs>
        <path id="path-1" d="M0,0.482790698 L99.9465909,0.482790698 L99.9465909,24 L0,24 L0,0.482790698 Z"></path>
        <path id="path-3" d="M0,0.482790698 L99.9465909,0.482790698 L99.9465909,24 L0,24 L0,0.482790698 Z"></path>
    </defs>
    <g id="Images" stroke="none" stroke-width="1" fill="none" fill-rule="evenodd" sketch:type="MSPage">
        <g id="Icons" sketch:type="MSArtboardGroup" transform="translate(-23.000000, -21.000000)">
            <g id="untappd-logo" sketch:type="MSLayerGroup" transform="translate(23.000000, 21.000000)">
                <path d="M0,10.9785488 L0,0.625060465 L3.39886364,0.625060465 L3.39886364,10.7865488 C3.39886364,13.1497116 4.44375,14.0572465 6.70227273,14.0572465 C8.93693182,14.0572465 9.95625,13.1497116 9.95625,10.7865488 L9.95625,0.625060465 L13.3556818,0.625060465 L13.3556818,10.9785488 C13.3556818,15.0814326 10.4659091,17.0600372 6.70227273,17.0600372 C2.88977273,17.0600372 0,15.0814326 0,10.9785488" id="Fill-1" fill="#FFFFFF" sketch:type="MSShapeGroup"></path>
                <path d="M18.6978409,7.72727442 L18.6989773,16.8467163 L15.5171591,16.8467163 L15.5171591,0.483181395 L15.8569318,0.483181395 L25.9222727,9.75108837 L25.9114773,0.624948837 L29.0927273,0.624948837 L29.0927273,16.9890419 L28.7506818,16.9890419 L18.6978409,7.72727442 Z" id="Fill-3" fill="#FFFFFF" sketch:type="MSShapeGroup"></path>
                <path d="M35.6717045,3.56031628 L30.9603409,3.56031628 L30.9603409,0.625060465 L43.7819318,0.625060465 L43.7819318,3.56031628 L39.0711364,3.56031628 L39.0711364,16.8468279 L35.6717045,16.8468279 L35.6717045,3.56031628 Z" id="Fill-5" fill="#FFFFFF" sketch:type="MSShapeGroup"></path>
                <path d="M51.3832386,12.2191256 L50.1923295,9.40386977 C49.7071023,8.25912558 49.1980114,6.49428837 49.1980114,6.49428837 C49.1980114,6.49428837 48.7110795,8.25912558 48.2252841,9.40386977 L47.0360795,12.2191256 L51.3832386,12.2191256 Z M49.0997159,0.483125581 L49.3917614,0.483125581 L56.9428977,16.8466605 L53.3741477,16.8466605 L52.5957386,15.0103814 L45.8940341,15.0103814 L45.1167614,16.8466605 L41.8394886,16.8466605 L49.0997159,0.483125581 Z" id="Fill-7" fill="#FFFFFF" sketch:type="MSShapeGroup"></path>
                <path d="M63.0143182,10.2160186 C65.7825,10.2160186 66.995,9.11871628 66.995,6.89955349 C66.995,4.65694884 65.7336364,3.56020465 63.0143182,3.56020465 L61.9438636,3.56020465 L61.9438636,10.2160186 L63.0143182,10.2160186 Z M58.545,0.624948837 L63.1103409,0.624948837 C67.7234091,0.624948837 70.4921591,2.98866977 70.4921591,6.89955349 C70.4921591,10.8104372 67.7001136,13.1496 63.1103409,13.1496 L61.9438636,13.1496 L61.9438636,16.8467163 L58.545,16.8467163 L58.545,0.624948837 Z" id="Fill-9" fill="#FFFFFF" sketch:type="MSShapeGroup"></path>
                <path d="M76.9736364,10.2160186 C79.7429545,10.2160186 80.9582955,9.11871628 80.9582955,6.89955349 C80.9582955,4.65694884 79.6935227,3.56020465 76.9736364,3.56020465 L75.9065909,3.56020465 L75.9065909,10.2160186 L76.9736364,10.2160186 Z M72.5077273,0.624948837 L77.0725,0.624948837 C81.6872727,0.624948837 84.4543182,2.98866977 84.4543182,6.89955349 C84.4543182,10.8104372 81.6605682,13.1496 77.0725,13.1496 L75.9065909,13.1496 L75.9065909,16.8467163 L72.5077273,16.8467163 L72.5077273,0.624948837 Z" id="Fill-11" fill="#FFFFFF" sketch:type="MSShapeGroup"></path>
                <g id="Group-15">
                    <mask id="mask-2" sketch:name="Clip 14" fill="white">
                        <use xlink:href="#path-1"></use>
                    </mask>
                    <g id="Clip-14"></g>
                    <path d="M91.0832955,13.9131349 C94.7497727,13.9131349 96.4253409,11.7648558 96.4253409,8.73694884 C96.4253409,5.7068093 94.7497727,3.56020465 91.0832955,3.56020465 L89.5781818,3.56020465 L89.5781818,13.9131349 L91.0832955,13.9131349 Z M86.1781818,0.624948837 L91.2526136,0.624948837 C96.32875,0.624948837 99.9469318,3.94197209 99.9469318,8.73694884 C99.9469318,13.5308093 96.3531818,16.8467163 91.2526136,16.8467163 L86.1781818,16.8467163 L86.1781818,0.624948837 Z" id="Fill-13" fill="#FFFFFF" sketch:type="MSShapeGroup" mask="url(#mask-2)"></path>
                </g>
                <path d="M11.9661932,23.4690977 L12.2480114,23.1933767 L12.2480114,20.7403535 L11.9661932,20.4607256 L10.6872159,20.4607256 L10.6872159,23.4690977 L11.9661932,23.4690977 Z M9.52301136,23.4936558 L9.97982955,23.4936558 L9.97982955,20.4384 L9.52301136,20.4384 L9.52301136,19.9316093 L12.3627841,19.9316093 L12.9559659,20.5154233 L12.9559659,23.4171907 L12.3627841,23.9998884 L9.52301136,23.9998884 L9.52301136,23.4936558 Z" id="Fill-16" fill="#FFFFFF" sketch:type="MSShapeGroup"></path>
                <path d="M18.3505114,21.7532651 L18.6203977,21.4875907 L18.6203977,20.6861023 L18.374375,20.4388465 L17.0783523,20.4388465 L17.0783523,21.7532651 L18.3505114,21.7532651 Z M15.9135795,23.4935442 L16.3698295,23.4935442 L16.3698295,20.4388465 L15.9135795,20.4388465 L15.9135795,19.9314977 L18.7828977,19.9314977 L19.3289205,20.4673116 L19.3289205,21.588614 L18.9084659,22.0016372 L19.3289205,22.4135442 L19.3289205,23.4516837 L19.3709659,23.4935442 L19.6703977,23.4935442 L19.6703977,23.9997767 L18.9453977,23.9997767 L18.6203977,23.6821953 L18.6203977,22.5497302 L18.3385795,22.2723349 L17.0783523,22.2723349 L17.0783523,23.4935442 L17.5766477,23.4935442 L17.5766477,23.9997767 L15.9135795,23.9997767 L15.9135795,23.4935442 Z" id="Fill-18" fill="#FFFFFF" sketch:type="MSShapeGroup"></path>
                <path d="M22.3943182,23.4936558 L22.9045455,23.4936558 L22.9045455,20.4384 L22.3943182,20.4384 L22.3943182,19.9316093 L24.1119318,19.9316093 L24.1119318,20.4384 L23.6130682,20.4384 L23.6130682,23.4936558 L24.1119318,23.4936558 L24.1119318,23.9998884 L22.3943182,23.9998884 L22.3943182,23.4936558 Z" id="Fill-20" fill="#FFFFFF" sketch:type="MSShapeGroup"></path>
                <path d="M26.8404545,23.4936558 L27.2972727,23.4936558 L27.2972727,20.4384 L26.8404545,20.4384 L26.8404545,19.9316093 L27.9876136,19.9316093 L29.6972727,22.8679814 L29.6972727,20.4384 L29.1876136,20.4384 L29.1876136,19.9316093 L30.7421591,19.9316093 L30.7421591,20.4384 L30.3222727,20.4384 L30.3222727,23.9998884 L29.6376136,23.9998884 L27.9211364,21.034493 L27.9211364,23.4936558 L28.4319318,23.4936558 L28.4319318,23.9998884 L26.8404545,23.9998884 L26.8404545,23.4936558 Z" id="Fill-22" fill="#FFFFFF" sketch:type="MSShapeGroup"></path>
                <path d="M35.6078977,23.4936558 L36.0647159,23.4936558 L35.3436932,22.0369116 L34.618125,22.8679814 L34.618125,23.4936558 L35.043125,23.4936558 L35.043125,23.9998884 L33.4641477,23.9998884 L33.4641477,23.4936558 L33.9096023,23.4936558 L33.9096023,20.4384 L33.4641477,20.4384 L33.4641477,19.9316093 L35.043125,19.9316093 L35.043125,20.4384 L34.618125,20.4384 L34.618125,22.1133767 L35.9738068,20.4384 L35.5539205,20.4384 L35.5539205,19.9316093 L37.174375,19.9316093 L37.174375,20.4384 L36.730625,20.4384 L35.818125,21.5312372 L36.8266477,23.4936558 L37.2527841,23.4936558 L37.2527841,23.9998884 L35.6078977,23.9998884 L35.6078977,23.4936558 Z" id="Fill-24" fill="#FFFFFF" sketch:type="MSShapeGroup"></path>
                <path d="M44.0801136,23.4751256 L44.0801136,22.8500093 L44.7829545,22.8500093 L44.7829545,23.2574512 L45.0051136,23.468986 L46.1340909,23.468986 L46.3619318,23.2451721 L46.3619318,22.3968 L46.19375,22.2260093 L44.5727273,22.2260093 L44.0988636,21.7532651 L44.0988636,20.4740093 L44.6511364,19.9314977 L46.5232955,19.9314977 L47.0568182,20.456707 L47.0568182,21.068986 L46.3488636,21.068986 L46.3488636,20.6743814 L46.1340909,20.4611721 L45.0357955,20.4611721 L44.8068182,20.6861023 L44.8068182,21.4937302 L44.9744318,21.6656372 L46.5965909,21.6656372 L47.0698864,22.1305674 L47.0698864,23.4583814 L46.5170455,23.9997767 L44.6147727,23.9997767 L44.0801136,23.4751256 Z" id="Fill-26" fill="#FFFFFF" sketch:type="MSShapeGroup"></path>
                <g id="Group-30">
                    <mask id="mask-4" sketch:name="Clip 29" fill="white">
                        <use xlink:href="#path-3"></use>
                    </mask>
                    <g id="Clip-29"></g>
                    <path d="M52.3253977,23.4631256 L52.6021023,23.1868465 L52.6021023,20.7461023 L52.3253977,20.4675907 L51.185625,20.4675907 L50.9038068,20.7461023 L50.9038068,23.1868465 L51.185625,23.4631256 L52.3253977,23.4631256 Z M50.1958523,23.4173581 L50.1958523,20.5155907 L50.7839205,19.9317767 L52.7225568,19.9317767 L53.3174432,20.5155907 L53.3174432,23.4173581 L52.7225568,24.0000558 L50.7839205,24.0000558 L50.1958523,23.4173581 Z" id="Fill-28" fill="#FFFFFF" sketch:type="MSShapeGroup" mask="url(#mask-4)"></path>
                </g>
                <path d="M56.5080114,23.4233302 L56.5080114,20.5098419 L57.1017614,19.9316093 L58.938125,19.9316093 L59.5080114,20.4930977 L59.5080114,21.2214698 L58.806875,21.2214698 L58.806875,20.722493 L58.5477841,20.4674233 L57.4972159,20.4674233 L57.2165341,20.7459349 L57.2165341,23.1933767 L57.4972159,23.4690977 L58.5477841,23.4690977 L58.806875,23.2162605 L58.806875,22.6860279 L59.5080114,22.6860279 L59.5080114,23.4400744 L58.938125,23.9998884 L57.1017614,23.9998884 L56.5080114,23.4233302 Z" id="Fill-31" fill="#FFFFFF" sketch:type="MSShapeGroup"></path>
                <path d="M62.4006818,23.4936558 L62.9103409,23.4936558 L62.9103409,20.4384 L62.4006818,20.4384 L62.4006818,19.9316093 L64.1171591,19.9316093 L64.1171591,20.4384 L63.6177273,20.4384 L63.6177273,23.4936558 L64.1171591,23.4936558 L64.1171591,23.9998884 L62.4006818,23.9998884 L62.4006818,23.4936558 Z" id="Fill-33" fill="#FFFFFF" sketch:type="MSShapeGroup"></path>
                <path d="M68.1784659,22.2378419 L69.325625,22.2378419 L68.8034659,20.4333767 L68.706875,20.4333767 L68.1784659,22.2378419 Z M66.8455114,23.4936558 L67.1636932,23.4936558 L68.1125568,20.4384 L67.5773295,20.4384 L67.5773295,19.9316093 L70.0028977,19.9316093 L70.0028977,20.4384 L69.4511932,20.4384 L70.4063068,23.4936558 L70.7233523,23.4936558 L70.7233523,23.9998884 L69.2347159,23.9998884 L69.2347159,23.4992372 L69.6966477,23.4992372 L69.4744886,22.7513302 L68.0290341,22.7513302 L67.8119886,23.4992372 L68.2744886,23.4992372 L68.2744886,23.9998884 L66.8455114,23.9998884 L66.8455114,23.4936558 Z" id="Fill-35" fill="#FFFFFF" sketch:type="MSShapeGroup"></path>
                <path d="M73.4475,23.4936558 L73.90375,23.4936558 L73.90375,20.4384 L73.4475,20.4384 L73.4475,19.9316093 L75.2122727,19.9316093 L75.2122727,20.4384 L74.6122727,20.4384 L74.6122727,23.4936558 L75.8423864,23.4936558 L75.8423864,22.5202605 L76.4418182,22.5202605 L76.4418182,23.9998884 L73.4475,23.9998884 L73.4475,23.4936558 Z" id="Fill-37" fill="#FFFFFF" sketch:type="MSShapeGroup"></path>
                <path d="M79.1653409,23.4936558 L79.6221591,23.4936558 L79.6221591,20.4384 L79.1653409,20.4384 L79.1653409,19.9316093 L80.9295455,19.9316093 L80.9295455,20.4384 L80.3306818,20.4384 L80.3306818,23.4936558 L81.5613636,23.4936558 L81.5613636,22.5202605 L82.1613636,22.5202605 L82.1613636,23.9998884 L79.1653409,23.9998884 L79.1653409,23.4936558 Z" id="Fill-39" fill="#FFFFFF" sketch:type="MSShapeGroup"></path>
                <path d="M85.4186932,23.4936558 L86.0238068,23.4936558 L86.0238068,22.6491907 L84.8601705,20.4384 L84.5238068,20.4384 L84.5238068,19.9316093 L86.0914205,19.9316093 L86.0914205,20.4384 L85.6039205,20.4384 L86.4152841,22.0369116 L87.2255114,20.4384 L86.7391477,20.4384 L86.7391477,19.9316093 L88.2328977,19.9316093 L88.2328977,20.4384 L87.9027841,20.4384 L86.7334659,22.6491907 L86.7334659,23.4936558 L87.3334659,23.4936558 L87.3334659,23.9998884 L85.4186932,23.9998884 L85.4186932,23.4936558 Z" id="Fill-41" fill="#FFFFFF" sketch:type="MSShapeGroup"></path>
            </g>
        </g>
    </g>
</svg>