<svg xmlns="http://www.w3.org/2000/svg" width="22" height="22" viewBox="0 0 22 22">
  <g fill="none" fill-rule="evenodd">
    <rect width="22" height="22"/>
    <g fill="#979797" transform="translate(2)">
      <rect width="18" height="1" y="6"/>
      <rect width="18" height="1" y="10"/>
      <rect width="18" height="1" y="14"/>
      <path fill-rule="nonzero" d="M10.5857864,18 L12,18 L9,21 L6,18 L7.41421356,18 L9,19.5857864 L10.5857864,18 Z M8.29289322,20.2928932 L9.70710678,20.2928932 L9,19.5857864 L8.29289322,20.2928932 Z M10.5857864,18 L12,18 L9,21 L6,18 L7.41421356,18 L9,19.5857864 L10.5857864,18 Z"/>
      <path fill-rule="nonzero" d="M10.5857864,-3.31947803e-11 L12,-1.11910481e-13 L9,3 L6,-1.11910481e-13 L7.41421356,5.45874457e-12 L9,1.58578644 L10.5857864,-3.31947803e-11 Z M8.29289322,2.29289322 L9.70710678,2.29289322 L9,1.58578644 L8.29289322,2.29289322 Z M10.5857864,-3.31947803e-11 L12,-1.11910481e-13 L9,3 L6,-1.11910481e-13 L7.41421356,5.45874457e-12 L9,1.58578644 L10.5857864,-3.31947803e-11 Z" transform="rotate(-180 9 1.5)"/>
    </g>
  </g>
</svg>
